<svg width="151" height="39" viewBox="0 0 151 39" fill="none" xmlns="http://www.w3.org/2000/svg">
<path fill-rule="evenodd" clip-rule="evenodd" d="M27.3945 1.30784C20.0069 -1.98398 6.82647 1.2574 2.3008 7.46545C-0.0528235 10.6936 -0.388058 15.0455 2.39004 18.1495C3.13967 18.9884 3.46093 19.2057 3.83109 17.7693C4.44801 15.366 5.55382 13.3825 7.1524 11.8483C10.9657 8.18093 16.5529 6.48846 21.6102 6.66616C23.5642 6.736 25.3707 7.18454 26.506 8.3144C29.5355 11.33 26.5355 15.6523 23.9685 17.6016C22.054 19.0481 19.4536 20.0049 16.1774 20.4837C17.2133 17.084 18.7537 13.8861 20.4757 10.831C21.2548 9.44427 21.576 8.9709 19.8975 8.61549C17.2777 8.05754 13.2006 8.57126 12.229 10.6735L12.0071 11.3144C10.7888 14.2858 9.75202 17.5326 8.93255 21.0657C7.95556 21.1053 6.98866 21.1402 6.00701 21.1201C4.97492 21.1007 4.81196 21.0564 4.87094 21.7766C4.9951 23.3014 5.48786 25.6752 7.30915 25.6062C7.45659 25.6015 7.75846 25.5223 8.2326 25.3695C8.05373 26.7615 7.98756 28.1657 8.03471 29.5684C8.07351 30.8023 8.21242 32.0462 8.44445 33.3041C10.3193 41.1014 19.2077 36.4237 23.0023 33.4725C24.9811 31.9329 26.3578 30.4771 27.1128 29.0997C27.8679 27.7223 28.2326 26.5537 28.1985 25.6015C28.1776 25.0587 28.0553 24.5247 27.8376 24.027C27.2308 22.655 25.6175 21.6881 22.9822 21.1154C25.9186 19.4967 28.2621 17.6265 30.0291 15.4847C34.145 10.495 33.2316 3.90281 27.3984 1.30241L27.3945 1.30784ZM23.506 25.8483C23.5944 28.548 18.7242 31.6419 16.459 31.7304C15.7831 31.756 15.2896 31.5038 14.9885 30.9614C13.8284 28.9872 14.6727 25.2965 15.413 23.372C17.9249 22.1871 23.3927 22.281 23.5106 25.849L23.506 25.8483ZM65.2202 9.4109C64.5529 9.27327 63.8737 9.20205 63.1925 9.19827C62.0859 9.19879 61.0561 9.39952 60.1032 9.80045C58.6078 10.4026 57.4974 11.2268 56.8013 12.2829C56.1005 13.329 55.7459 14.3548 55.7459 15.3574C55.7449 15.6487 55.771 15.9495 55.8243 16.2599C56.0618 17.5978 56.9844 18.7913 58.5783 19.8575C58.9725 20.1244 60.024 20.8298 60.769 21.6245C63.454 24.4918 57.2902 26.6033 56.3768 22.5619C56.2488 21.9946 56.1898 21.3529 56.1898 20.6715C56.5103 19.5122 55.7948 19.2111 55.3556 19.8575C54.63 20.9284 53.9495 21.9403 53.1797 22.8086C52.4099 23.6677 51.744 24.1015 51.1706 24.1015C50.8447 24.1015 50.6778 23.8004 50.6778 23.1982C50.6789 22.8521 50.7314 22.4098 50.8353 21.8712C51.3087 19.3841 53.0904 14.3106 54.9513 9.46522L60.9615 8.34001C61.7957 8.34001 63.0838 6.12839 61.9734 6.12839L55.7847 7.36224C56.9992 4.44135 57.2514 4.00213 57.7635 3.24165C57.1325 2.82341 56.4303 2.52412 55.6916 2.35855C54.9311 2.19094 54.2901 2.10247 53.7718 2.10247C53.3574 2.10247 52.9375 2.1467 52.5232 2.23517C51.63 2.42296 50.9634 2.89633 50.6088 3.6863C50.1447 4.7277 49.735 5.69926 48.9109 8.03892L43.8428 8.76836C43.1172 8.76836 41.9477 10.8667 43.0582 10.8667L48.2396 10.1357C47.514 12.4753 46.7838 15.2783 46.468 17.084C46.2872 18.0813 46.1489 19.0859 46.0536 20.095C46.0536 20.1043 46.0435 20.1089 46.0435 20.119C44.9726 23.9835 37.5951 28.967 37.0923 23.0011C37.0131 22.073 37.1264 21.2543 37.4275 20.1438C37.6937 20.4744 38.0933 20.6521 38.6218 20.687C39.1588 20.7202 39.4713 20.7365 39.5592 20.7359C40.4376 20.7359 41.351 20.4744 42.2783 19.9413C43.3151 19.3492 44.06 18.224 44.5086 16.5758C44.5978 16.1955 44.642 15.8207 44.642 15.4606C44.6388 14.9269 44.5437 14.3977 44.3611 13.8962C44.0404 13.0426 43.4827 12.332 42.6881 11.7645C41.8831 11.2058 40.873 10.9262 39.6578 10.9257C38.2765 10.9257 37.0473 11.2811 35.9717 12.0012C34.9008 12.7221 34.0123 13.6494 33.2968 14.7948C32.5868 15.934 32.0932 17.0895 31.8069 18.2488C31.5252 19.4183 31.3824 20.4837 31.3824 21.4367C31.3824 23.0849 31.6835 24.5213 32.4184 25.6504C35.9671 31.1042 43.4284 28.2322 46.0932 23.0112C46.1374 23.3565 46.1964 23.6917 46.2709 24.0076C46.6356 25.6806 47.6328 26.6134 49.2562 26.8059H49.3648C50.3814 26.8059 51.4818 26.3271 52.6512 25.3796C53.2142 24.9136 53.7361 24.4001 54.211 23.8446C54.7293 28.4688 61.8104 28.0645 64.5838 25.7792C66.849 23.9245 67.3325 20.4348 65.186 18.3575C64.4227 17.6107 63.5689 16.9624 62.6446 16.4275C62.0323 16.0822 61.5636 15.7617 61.2284 15.4707C60.8921 15.1707 60.7243 14.8579 60.7248 14.5325L60.7496 14.3548C61.0057 13.6099 61.4946 13.2397 62.2007 13.2397C63.0148 13.2397 63.8241 13.5462 64.6374 14.1678C64.9688 14.4239 65.2256 14.7009 65.408 14.9826C67.0019 17.4395 67.6483 13.8225 67.6483 12.608C67.6483 12.2278 67.6041 11.8483 67.5148 11.4634C67.2587 10.4469 66.4983 9.76088 65.2403 9.41478L65.2202 9.4109ZM38.2369 17.933C38.6513 17.0096 39.1293 16.2498 39.6632 15.6484C40.201 15.0563 40.7186 14.725 41.223 14.6567C41.5887 14.6707 41.8337 14.8481 41.9578 15.189C42.0913 15.5297 42.1503 15.8308 42.1503 16.0923C42.1503 17.0646 41.7258 17.8096 40.8575 18.3272C40.2548 18.7064 39.4568 18.8958 38.4635 18.8952L37.8427 18.8704C37.9513 18.5398 38.0739 18.2294 38.2322 17.933H38.2369ZM100.78 4.91006C104.353 4.0712 100.518 0.14771 97.5626 1.26826C88.1566 4.83556 84.9688 12.9883 82.7579 21.4755C82.2101 23.5738 82.0968 23.5241 81.9641 21.2295C81.7809 18.1053 82.4374 13.689 83.7109 11.1329C84.4116 9.7213 85.1372 9.92849 83.6814 9.12455C82.9651 8.72879 82.3979 8.57126 81.6971 8.57126C81.2954 8.57201 80.8979 8.65274 80.5277 8.80872C78.4053 9.70656 76.2441 12.3271 75.0599 16.6642C74.5866 18.4118 74.1365 19.9219 73.9689 21.2349C73.6236 23.9781 73.1455 23.8842 72.9872 21.1697C72.8297 18.3769 73.6088 15.2139 74.5268 12.8354C75.5186 10.2692 77.2607 9.56377 74.5268 8.9321C73.7819 8.75905 73.1649 8.67524 72.6566 8.67524C72.2764 8.67524 71.8962 8.70939 71.512 8.78389C69.6364 9.16413 68.6843 11.6807 68.6843 16.329L68.7083 17.3906C68.772 19.9917 69.3641 22.3454 70.4 24.4577C70.8447 25.3656 70.9487 25.6077 71.9505 26.0174C72.6954 26.3278 73.5048 26.5055 74.3142 26.5055C75.6862 26.5055 75.5325 26.3527 75.6714 25.2965C75.7749 24.476 75.9671 23.4116 76.248 22.1033C76.6577 20.1889 77.1714 18.4917 77.7884 17.001L77.7635 18.0913C77.7635 19.2367 77.8621 20.4061 78.084 21.6004C78.2819 22.6814 78.5481 23.5986 78.8639 24.3591C79.6143 26.1594 81.7856 26.7965 83.7295 26.6336C85.5554 26.4807 85.0867 26.1944 85.3583 24.5516C86.9771 14.8204 91.0876 7.18066 100.774 4.91084L100.78 4.91006Z" fill="#454F5C"/>
<path fill-rule="evenodd" clip-rule="evenodd" d="M116.04 14.1063C116.405 12.9423 117.535 11.8613 115.669 11.5408C115.018 11.4275 114.529 11.3732 114.218 11.3678C113.583 11.3494 112.949 11.4397 112.343 11.6347C111.47 11.9257 110.927 12.4542 110.695 13.2286C110.043 16.1309 109.466 18.5435 108.983 20.4874C108.731 21.454 108.458 22.4149 108.164 23.3695C102.701 28.3437 102.657 24.3216 104.472 19.6835C105.056 18.1844 105.706 16.7124 106.422 15.2719C107.591 12.9275 108.395 11.5315 106.53 11.2056C105.795 11.0768 105.213 10.934 104.734 10.9239C104.301 10.91 103.868 10.9415 103.441 11.0178C101.881 11.3088 101.971 12.2904 101.388 13.5344C101.112 11.5012 99.478 10.4505 97.2625 10.4009C95.8262 10.3667 94.5535 10.7563 93.433 11.5703C92.3132 12.375 91.3897 13.4312 90.6696 14.7139C89.9495 16.0067 89.48 17.1909 89.2728 18.2766C89.0563 19.363 88.9523 20.236 88.9375 20.8917C88.8832 23.1964 89.4257 24.958 90.5416 26.212C92.9542 28.921 97.8694 28.4725 99.873 24.4652C100.204 28.6789 103.969 28.4927 107.048 26.666C106.901 27.0656 106.752 27.4707 106.594 27.861C106.234 28.7589 103.52 35.8547 103.17 37.014C102.636 38.7709 107.29 38.6382 108.756 37.2266C110.221 35.8151 111.668 28.1908 112.392 25.8667C112.724 27.2286 114.372 28.5757 116.4 28.6199C117.816 28.6502 119.085 28.2894 120.19 27.5297C121.296 26.7656 122.222 25.7671 122.968 24.5343C124.404 22.1806 125.1 19.1356 125.164 16.3916C125.312 9.84835 118.981 10.39 116.04 14.1063ZM95.1456 25.675C91.4596 24.8462 94.2322 13.6485 98.7525 14.2654C102.276 14.7496 97.9734 26.3113 95.1456 25.675ZM117.89 25.2459C116.39 27.0222 113.996 26.6031 113.774 23.4595C113.636 21.5001 114.406 18.3518 115.912 16.5554C118.27 13.7377 119.573 14.8528 119.938 17.0342C120.343 19.4475 119.449 23.3951 117.89 25.2459Z" fill="#454F5C"/>
<path d="M132.338 10.5002C137.988 6.8965 145.491 8.55534 149.095 14.2053C152.699 19.8562 151.039 27.3584 145.389 30.9622C139.738 34.5664 132.237 32.9061 128.633 27.2561C125.029 21.6061 126.688 14.104 132.338 10.5002ZM148.446 14.8118C147.904 14.7776 147.415 14.783 146.906 15.0002C146.496 15.1632 146.227 15.4245 146.098 15.7844C145.69 15.1331 145.105 14.8416 144.346 14.9104C143.586 14.9797 142.939 15.2616 142.406 15.7551C141.863 16.258 141.437 16.8746 141.158 17.5608C140.862 18.2762 140.689 18.9232 140.65 19.5051C140.605 20.0878 140.6 20.566 140.635 20.926C140.744 22.0907 141.133 22.9648 141.794 23.5569C142.244 23.9563 142.821 24.124 143.526 24.0598C144.02 24.0156 144.479 23.7534 144.894 23.2747C144.81 23.6107 144.326 24.312 143.67 24.7854C143.102 25.1904 142.455 24.9088 141.957 24.593C140.837 23.8822 139.539 25.3232 140.99 26.7844L140.985 26.7834C142.708 28.5159 145.209 27.6366 146.374 25.9993C148.416 23.1219 148.989 19.761 149.261 16.4553C149.33 15.6018 149.448 14.8816 148.446 14.8118ZM139.895 14.5559C139.352 14.521 138.864 14.5264 138.356 14.7434C137.945 14.9064 137.675 15.168 137.546 15.5276C137.137 14.8763 136.553 14.5852 135.794 14.6545C135.034 14.7234 134.387 15.0048 133.855 15.4983C133.311 16.0015 132.885 16.6184 132.607 17.3049C132.31 18.0203 132.137 18.6666 132.098 19.2493C132.053 19.8311 132.048 20.3092 132.082 20.6692C132.191 21.8346 132.581 22.708 133.242 23.3C133.692 23.6999 134.27 23.8676 134.975 23.803C135.468 23.7595 135.927 23.4968 136.342 23.0188C136.257 23.354 135.774 24.0562 135.117 24.5295C134.55 24.9342 133.903 24.6529 133.405 24.3372C132.285 23.6256 130.987 25.0672 132.438 26.5276H132.434C134.156 28.2593 136.658 27.3805 137.822 25.7424C139.865 22.8659 140.438 19.5041 140.709 16.1985C140.778 15.345 140.896 14.625 139.895 14.5559ZM129.793 23.0042C128.812 23.0981 128.269 23.6167 128.16 24.5696C128.132 24.7257 128.125 24.8853 128.141 25.0432C128.159 25.2554 128.232 25.4592 128.353 25.635C128.54 25.9259 128.955 26.0451 129.586 25.9807H129.655L129.66 25.9758C129.991 25.9266 130.291 25.7533 130.499 25.4915C130.835 25.0823 130.973 24.5637 130.914 23.9368C130.899 23.7703 130.859 23.606 130.795 23.4436C130.646 23.1125 130.312 22.9659 129.793 23.0042ZM143.808 18.2571C144.36 17.2506 145.712 16.4603 145.989 18.1672C146.153 19.1672 145.945 20.1929 145.402 21.0491H145.406C144.686 22.1991 143.409 21.933 143.319 20.679C143.256 19.7567 143.467 18.8739 143.808 18.2571ZM135.256 18.0002C135.809 16.9938 137.16 16.2042 137.437 17.9114C137.601 18.9111 137.392 19.9362 136.851 20.7922L136.855 20.7932C136.134 21.9424 134.856 21.6763 134.768 20.4231C134.703 19.4998 134.916 18.6171 135.256 18.0002Z" fill="#454F5C"/>
</svg>
