<svg width="157" height="33" viewBox="0 0 157 33" fill="none" xmlns="http://www.w3.org/2000/svg">
<path d="M22.0643 22.6669C20.9098 22.6669 19.9366 22.4085 19.1449 21.8917C18.3642 21.3749 17.8144 20.6381 17.4955 19.6815C17.1767 18.7249 17.1437 17.5868 17.3966 16.2673C17.6385 15.0027 18.0783 13.9691 18.7161 13.1664C19.3648 12.3637 20.162 11.7699 21.1077 11.3851C22.0533 10.9892 23.087 10.7913 24.2085 10.7913C24.5824 10.7913 24.9673 10.8188 25.3631 10.8738C25.77 10.9288 26.1493 11.0002 26.5012 11.0882C26.8641 11.1762 27.1664 11.2696 27.4084 11.3686L27.8042 11.5335L26.897 13.7932L26.3033 13.6777C25.9074 13.6008 25.5226 13.5458 25.1487 13.5128C24.7748 13.4688 24.4065 13.4468 24.0436 13.4468C23.3948 13.4468 22.8121 13.5513 22.2953 13.7602C21.7894 13.9691 21.3661 14.299 21.0252 14.7498C20.6844 15.1897 20.4424 15.778 20.2995 16.5147C20.1566 17.3174 20.1566 17.9716 20.2995 18.4775C20.4424 18.9833 20.7228 19.3626 21.1407 19.6155C21.5695 19.8574 22.1138 19.9784 22.7736 19.9784C23.1474 19.9784 23.5433 19.9564 23.9611 19.9124C24.39 19.8574 24.8408 19.797 25.3136 19.731L25.9404 19.6155L26.2043 21.7927L25.6105 21.9906C25.1047 22.1666 24.5329 22.326 23.8952 22.469C23.2684 22.6009 22.6581 22.6669 22.0643 22.6669ZM27.6871 22.502L29.9302 10.9563H35.3072C36.2859 10.9563 37.0666 11.1267 37.6494 11.4676C38.2431 11.8084 38.65 12.2758 38.8699 12.8695C39.0898 13.4523 39.1283 14.1231 38.9854 14.8818C38.8314 15.7175 38.507 16.3992 38.0122 16.927C37.5174 17.4438 36.8467 17.8232 36 18.0651C35.1533 18.296 34.1142 18.4115 32.8826 18.4115H31.4147L30.6065 22.502H27.6871ZM31.827 16.2673H34.1527C34.7245 16.2673 35.1643 16.1573 35.4722 15.9374C35.7911 15.7065 36 15.3436 36.0989 14.8488C36.1979 14.409 36.1374 14.0626 35.9175 13.8097C35.6976 13.5458 35.3182 13.4138 34.7794 13.4138H32.3713L31.827 16.2673ZM34.9114 22.502L33.0971 18.1971L35.8515 17.6857L38.0617 22.502H34.9114ZM39.4454 22.502L41.6886 10.9563H50.7272L50.2324 13.4633H44.1131L43.7173 15.4756H49.1933L48.7479 17.7682H43.2885L42.8431 19.9784H49.0943L48.5995 22.502H39.4454ZM49.3454 22.502L55.9595 10.9563H59.1923L61.4519 22.502H58.4171L57.0811 13.9416H57.0481L52.6772 22.502H49.3454ZM52.9081 20.4897L53.3699 18.1971H59.1263L58.6645 20.4897H52.9081ZM64.2412 22.502L65.9895 13.4963H62.2784L62.7732 10.9563H73.0819L72.5871 13.4963H68.8925L67.1441 22.502H64.2412ZM77.5279 22.6669C76.2964 22.6669 75.2627 22.392 74.4271 21.8422C73.6024 21.2924 73.0251 20.5392 72.6952 19.5825C72.3763 18.6259 72.3378 17.5373 72.5797 16.3168C72.8107 15.1622 73.234 14.1781 73.8498 13.3644C74.4655 12.5397 75.2463 11.9074 76.1919 11.4676C77.1485 11.0167 78.2591 10.7913 79.5237 10.7913C80.4363 10.7913 81.239 10.9508 81.9318 11.2696C82.6245 11.5885 83.1853 12.0393 83.6141 12.6221C84.043 13.1939 84.3234 13.8702 84.4553 14.6509C84.5983 15.4206 84.5763 16.2673 84.3893 17.1909C84.1584 18.3345 83.7406 19.3186 83.1358 20.1433C82.531 20.957 81.7558 21.5838 80.8102 22.0236C79.8645 22.4525 78.7704 22.6669 77.5279 22.6669ZM77.9073 19.9619C78.589 19.9619 79.1663 19.8519 79.6391 19.632C80.1229 19.4121 80.5133 19.0767 80.8102 18.6259C81.1181 18.1641 81.3435 17.5868 81.4864 16.894C81.6514 16.1133 81.6569 15.4701 81.5029 14.9643C81.36 14.4584 81.0796 14.0901 80.6617 13.8592C80.2549 13.6173 79.7326 13.4963 79.0948 13.4963C78.4131 13.4963 77.8303 13.6063 77.3465 13.8262C76.8736 14.0461 76.4833 14.387 76.1754 14.8488C75.8785 15.2996 75.6586 15.8714 75.5157 16.5642C75.3617 17.3449 75.3562 17.9881 75.4992 18.4939C75.6421 18.9998 75.917 19.3736 76.3239 19.6155C76.7417 19.8464 77.2695 19.9619 77.9073 19.9619ZM85.2062 22.502L87.4493 10.9563H92.8263C93.805 10.9563 94.5857 11.1267 95.1685 11.4676C95.7623 11.8084 96.1691 12.2758 96.389 12.8695C96.6089 13.4523 96.6474 14.1231 96.5045 14.8818C96.3505 15.7175 96.0262 16.3992 95.5313 16.927C95.0365 17.4438 94.3658 17.8232 93.5191 18.0651C92.6724 18.296 91.6333 18.4115 90.4017 18.4115H88.9338L88.1256 22.502H85.2062ZM89.3461 16.2673H91.6718C92.2436 16.2673 92.6834 16.1573 92.9913 15.9374C93.3102 15.7065 93.5191 15.3436 93.6181 14.8488C93.717 14.409 93.6565 14.0626 93.4366 13.8097C93.2167 13.5458 92.8373 13.4138 92.2985 13.4138H89.8904L89.3461 16.2673ZM92.4305 22.502L90.6162 18.1971L93.3706 17.6857L95.5808 22.502H92.4305ZM97.4923 22.502L99.7355 10.9563H104.585C105.398 10.9563 106.053 11.0882 106.547 11.3521C107.042 11.605 107.383 11.9624 107.57 12.4242C107.757 12.875 107.779 13.4138 107.636 14.0406C107.526 14.6014 107.284 15.1072 106.91 15.558C106.536 16.0089 105.987 16.3332 105.261 16.5312V16.5477C105.679 16.6246 106.025 16.8006 106.3 17.0755C106.575 17.3394 106.767 17.6638 106.877 18.0486C106.987 18.4335 106.993 18.8623 106.894 19.3351C106.762 19.9949 106.509 20.5612 106.135 21.034C105.761 21.5068 105.272 21.8697 104.667 22.1226C104.073 22.3755 103.364 22.502 102.539 22.502H97.4923ZM98.7128 21.5783H102.589C103.557 21.5783 104.299 21.3859 104.816 21.001C105.343 20.6052 105.684 20.0169 105.838 19.2362C105.97 18.5654 105.855 18.0266 105.492 17.6198C105.129 17.2019 104.524 16.993 103.677 16.993H99.587L98.7128 21.5783ZM99.7685 16.0529H103.859C104.64 16.0529 105.255 15.8879 105.706 15.558C106.157 15.2172 106.443 14.7169 106.564 14.0571C106.707 13.4083 106.608 12.886 106.267 12.4902C105.937 12.0833 105.294 11.8799 104.337 11.8799H100.577L99.7685 16.0529ZM111.778 22.502L112.734 17.5703L109.419 10.9563H110.607L113.378 16.6796H113.411L118.375 10.9563H119.777L113.757 17.6528L112.817 22.502H111.778ZM122.775 22.502L124.837 11.8799H120.499L120.68 10.9563H130.395L130.214 11.8799H125.876L123.814 22.502H122.775ZM130.303 22.502L132.546 10.9563H140.76L140.579 11.8799H133.404L132.579 16.1353H139.094L138.913 17.059H132.398L131.523 21.5783H138.814L138.632 22.502H130.303Z" fill="#454F5C"/>
<path d="M14.4824 2.15039H147.797C148.23 2.15039 148.632 2.37702 148.857 2.74707L153.454 10.3027C153.687 10.6855 153.695 11.164 153.476 11.5547L143.257 29.7676C143.037 30.159 142.624 30.4014 142.175 30.4014H9.10449C8.66538 30.4014 8.25832 30.1692 8.03516 29.791L3.12891 21.4766C2.89949 21.0878 2.89885 20.6048 3.12793 20.2158L13.4141 2.76172C13.6371 2.38338 14.0432 2.15048 14.4824 2.15039Z" stroke="#454F5C" stroke-width="4.30174"/>
</svg>
