<svg width="158" height="16" viewBox="0 0 158 16" fill="none" xmlns="http://www.w3.org/2000/svg">
<g clip-path="url(#clip0_1_1210)">
<path d="M122.541 0.881374C122.714 1.03232 122.808 1.23405 122.822 1.48656C122.832 1.6495 122.797 1.85899 122.72 2.11504C122.579 2.57352 122.364 3.04787 122.075 3.53809C121.921 3.79836 121.752 4.17538 121.566 4.66913C121.377 5.23059 121.18 5.78923 120.974 6.34505C120.747 6.96224 120.507 7.5018 120.255 7.96385C119.809 8.78133 119.297 9.58087 118.717 10.3624C118.382 10.8152 118.098 11.3235 117.865 11.887C117.863 11.8921 117.862 11.8976 117.863 11.903C117.864 11.9085 117.866 11.9136 117.869 11.918C117.872 11.9223 117.877 11.9258 117.882 11.928C117.887 11.9302 117.892 11.931 117.898 11.9304C119.625 11.7329 120.759 11.5872 121.302 11.4934C121.907 11.3883 122.515 11.309 123.126 11.2554C123.546 11.2003 123.949 11.2741 124.336 11.4765C124.361 11.4899 124.381 11.5106 124.395 11.536C124.409 11.5614 124.415 11.5903 124.413 11.6193C124.375 12.039 124.227 12.3564 123.966 12.5716C123.792 12.6795 123.626 12.7966 123.467 12.9228C123.295 13.0589 123.1 13.1499 122.885 13.1958C121.101 13.5746 119.321 13.977 117.547 14.403C116.776 14.5237 115.985 14.5487 115.176 14.4781C115.134 14.4746 115.128 14.4587 115.16 14.4305C115.354 14.2584 115.391 14.1029 115.273 13.964C115.222 13.9047 115.188 13.8631 115.171 13.8391C115.15 13.8087 115.126 13.7802 115.1 13.7534C115.079 13.7294 115.048 13.7114 115.008 13.6994C114.5 13.5435 114.307 13.205 114.428 12.6837C114.607 11.9135 114.985 11.0417 115.564 10.0682C116.291 8.84727 116.879 7.74203 117.33 6.75238C117.368 6.66636 117.385 6.56194 117.379 6.43921C117.374 6.31295 117.382 6.21032 117.406 6.13132C117.602 5.46618 117.852 4.82183 118.155 4.1983C118.338 3.82023 118.452 3.5797 118.497 3.47672C118.655 3.11417 118.75 2.86589 118.784 2.73187C118.867 2.39471 119.01 2.08717 119.214 1.80926C119.234 1.78164 119.263 1.7603 119.296 1.7479C119.508 1.66819 119.706 1.56168 119.889 1.42837C120.215 1.19208 120.569 1.13424 120.951 1.25486C120.966 1.25938 120.982 1.25892 120.996 1.25355C121.011 1.24819 121.023 1.23821 121.03 1.22523C121.215 0.925459 121.455 0.74559 121.754 0.685638C122.058 0.624271 122.321 0.689514 122.541 0.881374Z" fill="#454F5C"/>
<path d="M146.026 0.751385C146.06 0.755286 146.093 0.767444 146.121 0.786808C146.15 0.806165 146.173 0.832142 146.189 0.862481C146.573 1.58476 146.439 2.09297 145.789 2.3871C145.717 2.41983 145.659 2.47767 145.626 2.55004C145.488 2.85122 145.319 3.11573 145.119 3.34356C144.739 3.75761 144.359 4.172 143.981 4.58675C143.569 5.03677 143.206 5.46492 142.892 5.8712C142.09 6.90593 141.324 7.96717 140.594 9.0548C140.471 9.23959 140.339 9.41947 140.201 9.59442C140.1 9.72066 139.951 9.88464 139.756 10.0864C139.087 10.7748 138.464 11.5027 137.887 12.2702C137.671 12.4395 137.441 12.5894 137.199 12.7198C136.996 12.8856 136.731 13.1766 136.406 13.5927C136.072 14.0216 135.636 14.3877 135.098 14.691C134.86 14.8242 134.625 14.8617 134.39 14.8031C134.237 14.7721 134.086 14.7372 133.935 14.6983C133.744 14.6497 133.605 14.5862 133.517 14.5079C133.32 14.3323 133.232 14.078 133.254 13.7451C133.33 12.534 133.374 11.8992 133.386 11.8406C133.619 10.6888 133.733 10.0892 133.73 10.042C133.686 9.49604 133.651 8.94937 133.624 8.40203C133.572 7.88215 133.678 7.37961 133.941 6.89429C134.048 6.69753 134.09 6.46863 134.066 6.20765C134.011 5.60246 134.014 5.17889 134.073 4.93696C134.168 4.55113 134.178 4.16636 134.102 3.78265C134.094 3.74547 134.101 3.7069 134.12 3.67417C134.139 3.64145 134.17 3.61681 134.205 3.6049C134.321 3.56681 134.377 3.50121 134.374 3.4081C134.37 3.33334 134.369 3.29419 134.37 3.29066C134.402 3.00076 134.551 2.80608 134.816 2.70663C134.832 2.70028 134.846 2.69099 134.858 2.67935C134.87 2.66771 134.88 2.65395 134.886 2.63892C135.096 2.09015 135.453 1.67187 135.956 1.38409C135.958 1.38268 136.083 1.30015 136.33 1.13651C136.524 1.00743 136.767 0.934072 137.061 0.916437C137.261 0.904452 137.423 0.939716 137.55 1.02224C137.677 1.10547 137.749 1.23702 137.768 1.41689C137.788 1.59181 137.754 1.76181 137.669 1.92686C137.661 1.94133 137.657 1.95738 137.658 1.97336C137.658 1.98934 137.663 2.00469 137.671 2.01785C137.734 2.11801 137.768 2.20935 137.775 2.29188C137.804 2.66078 137.748 3.02686 137.606 3.39012C137.528 3.58903 137.481 3.76854 137.463 3.92866C137.426 4.26934 137.38 4.55254 137.325 4.77825C137.199 5.30092 137.118 5.74177 137.085 6.10079C137.039 6.60512 136.972 7.10661 136.884 7.60529C136.793 8.13009 136.723 8.65809 136.676 9.1892C136.672 9.22377 136.682 9.22689 136.704 9.19871C136.878 8.96592 137.104 8.71133 137.385 8.4348C138.141 7.68924 138.857 6.90632 139.531 6.08598C140.049 5.4568 140.565 4.82693 141.08 4.19634C141.468 3.73856 141.825 3.25681 142.148 2.75107C142.586 2.06757 143.157 1.52657 143.863 1.12805C143.876 1.12011 143.892 1.11551 143.909 1.11459C143.925 1.11368 143.942 1.11647 143.958 1.12276C144.215 1.22715 144.434 1.20916 144.616 1.0688C144.981 0.786655 145.451 0.68085 146.026 0.751385Z" fill="#454F5C"/>
<path d="M157.768 1.20593C157.817 1.55085 157.807 1.89295 157.738 2.23222C157.735 2.24767 157.727 2.26171 157.716 2.27234C157.705 2.28297 157.691 2.28967 157.675 2.29148C156.074 2.50802 154.471 2.71962 152.869 2.92629C152.236 3.08218 151.564 3.30436 150.853 3.59285C150.798 3.61457 150.753 3.65667 150.73 3.71029C150.313 4.61385 149.954 5.53258 149.653 6.46647C149.649 6.47733 149.648 6.48893 149.651 6.50015C149.653 6.51138 149.658 6.52185 149.665 6.53057C149.673 6.53928 149.683 6.54594 149.694 6.54991C149.705 6.55388 149.716 6.55502 149.728 6.55323C150.797 6.38111 151.864 6.2277 152.927 6.09298C153.192 6.05912 153.433 6.06935 153.65 6.12366C154.049 6.22241 154.432 6.36736 154.799 6.55851C154.81 6.56467 154.819 6.57551 154.823 6.58875C154.827 6.60198 154.826 6.61656 154.819 6.6294L154.417 7.4462C154.409 7.46189 154.399 7.47565 154.386 7.48655C154.374 7.49752 154.36 7.50536 154.345 7.50968C154.18 7.55907 154.025 7.62674 153.879 7.71283C153.704 7.81513 153.553 7.8814 153.424 7.91171C152.367 8.16072 151.406 8.33282 150.542 8.42807C149.967 8.49156 149.475 8.58535 149.066 8.70952C149.05 8.71444 149.034 8.72282 149.023 8.73398C149.01 8.74515 149 8.75884 148.994 8.774C148.929 8.92283 148.888 9.07871 148.87 9.2417C148.715 10.1086 148.615 10.9814 148.569 11.8603C148.569 11.8668 148.569 11.8732 148.572 11.8792C148.574 11.8852 148.578 11.8906 148.582 11.895C148.587 11.8993 148.592 11.9025 148.598 11.9044C148.604 11.9063 148.611 11.9068 148.617 11.9058C149.948 11.709 151.283 11.5323 152.619 11.3757C153.002 11.3313 153.38 11.325 153.757 11.3567C154.112 11.3863 154.492 11.4209 154.896 11.4604C154.924 11.463 154.952 11.4723 154.978 11.4876C155.004 11.5028 155.028 11.5239 155.048 11.5492L155.583 12.2243C155.593 12.2367 155.6 12.2515 155.601 12.2666C155.603 12.2817 155.601 12.2965 155.593 12.3089C155.456 12.5501 155.273 12.7346 155.043 12.8623C154.892 12.9462 154.65 13.0051 154.316 13.039C153.238 13.1469 152.074 13.3359 150.827 13.606C149.228 13.9517 148.241 14.1457 147.865 14.188C147.429 14.2367 147 14.3291 146.582 14.4652C146.249 14.5745 145.867 14.643 145.439 14.6704C145.287 14.6803 145.148 14.6638 145.023 14.6207C144.893 14.5763 144.784 14.4977 144.694 14.3848C144.505 14.1442 144.52 13.8889 144.738 13.6187C144.748 13.6066 144.754 13.5919 144.757 13.5762C144.759 13.5606 144.757 13.5446 144.751 13.5299C144.492 12.9289 144.464 12.3107 144.666 11.6751C144.717 11.429 144.772 11.1842 144.831 10.9409C144.895 10.1424 145.039 9.35876 145.265 8.58994C145.671 7.21661 146.14 5.8655 146.673 4.53662C146.869 4.04851 147.092 3.57345 147.343 3.11145C147.421 2.94005 147.471 2.7623 147.494 2.5782C147.512 2.43643 147.551 2.33168 147.611 2.26396C147.674 2.19272 147.759 2.11161 147.865 2.02062C148.053 1.85838 148.251 1.75928 148.458 1.72331C148.758 1.67112 148.912 1.64396 148.917 1.64184C149.27 1.54592 149.679 1.4715 150.145 1.4186C152.046 1.20276 153.947 0.997853 155.85 0.803878C156.523 0.650114 157.145 0.756975 157.716 1.12446C157.73 1.13378 157.742 1.14585 157.75 1.15989C157.76 1.17393 157.765 1.18962 157.768 1.20593Z" fill="#454F5C"/>
<path d="M132.176 1.38442C132.382 1.74978 132.479 2.13456 132.467 2.53873C132.464 2.63042 132.406 3.01131 132.293 3.6814C132.134 4.61529 131.925 5.44761 131.667 6.17836C131.374 7.00925 131.059 7.83172 130.723 8.64568C130.289 9.69522 129.98 10.5149 129.797 11.1045C129.595 11.7528 129.371 12.304 129.123 12.7582C129.062 12.8697 128.983 13.0785 128.888 13.3846C128.762 13.7888 128.529 14.1132 128.188 14.358C127.995 14.4962 127.775 14.5646 127.527 14.5632C127.436 14.5626 127.348 14.5887 127.272 14.6383C127.033 14.795 126.789 14.8648 126.537 14.8479C126.231 14.8281 126.013 14.6871 125.883 14.4246C125.776 14.2053 125.732 13.9602 125.753 13.6893C125.783 13.2731 125.873 12.8714 126.02 12.4842C126.105 12.2599 126.149 12.1463 126.15 12.1436C126.957 9.8751 127.466 8.47744 127.675 7.95058C127.849 7.51252 127.981 7.10697 128.072 6.73379C128.109 6.57723 128.163 6.4351 128.233 6.30743C128.37 6.05845 128.441 5.9269 128.446 5.91279C128.865 4.94645 129.217 3.95613 129.5 2.94184C129.513 2.89599 129.541 2.71859 129.583 2.40965C129.623 2.11692 129.756 1.86758 129.982 1.66162C130.025 1.62212 130.248 1.47364 130.649 1.21619C130.952 1.02151 131.193 0.917119 131.373 0.903006C131.714 0.876909 131.982 1.03738 132.176 1.38442Z" fill="#454F5C"/>
<path d="M11.0206 2.51958L10.6187 4.95834C10.6164 4.97335 10.6086 4.98705 10.5968 4.99695C10.585 5.00685 10.5698 5.01229 10.5541 5.0123H4.92034C4.89988 5.01236 4.88003 5.01989 4.86419 5.03361C4.84836 5.04732 4.83754 5.06635 4.83362 5.08742L4.60305 6.3888C4.60091 6.40164 4.60151 6.4148 4.60481 6.42735C4.60811 6.43991 4.61404 6.45157 4.62219 6.46153C4.63033 6.47149 4.64051 6.47952 4.65199 6.48504C4.66348 6.49057 4.67601 6.49347 4.68872 6.49354H9.67953C9.6883 6.49359 9.69701 6.49553 9.70499 6.49923C9.71297 6.50291 9.72001 6.50828 9.72566 6.51494C9.73125 6.52159 9.73537 6.52938 9.73763 6.53775C9.73989 6.54611 9.74029 6.55486 9.73876 6.56337L9.36857 8.63291C9.36438 8.65464 9.35262 8.67419 9.3352 8.68828C9.31785 8.70237 9.29598 8.71015 9.27338 8.71015L4.29953 8.68894C4.27526 8.68901 4.25179 8.69758 4.23324 8.71301C4.21469 8.72849 4.20222 8.74996 4.198 8.77363L3.92302 10.3278C3.92179 10.3344 3.92203 10.3411 3.92374 10.3476C3.92545 10.354 3.92859 10.36 3.93292 10.3652C3.93725 10.3703 3.94269 10.3745 3.94883 10.3774C3.95498 10.3802 3.9617 10.3817 3.9685 10.3818L9.74401 10.3882C9.75072 10.3881 9.7573 10.3895 9.76342 10.3922C9.76954 10.3948 9.77499 10.3988 9.77937 10.4037C9.78383 10.4086 9.78708 10.4144 9.78901 10.4207C9.79094 10.4269 9.79147 10.4335 9.79054 10.44C9.67986 11.2702 9.53848 12.068 9.36644 12.8333C9.35946 12.8644 9.34198 12.8923 9.31679 12.9123C9.29166 12.9322 9.26029 12.9432 9.22791 12.9433L0.325092 12.9412C0.31778 12.9412 0.310084 12.9384 0.302821 12.9332C0.295558 12.928 0.289001 12.9205 0.283846 12.9116C0.278206 12.9024 0.270097 12.8946 0.259521 12.8883C0.259521 12.8706 0.259521 12.853 0.259521 12.8354C0.881386 9.43842 1.48528 6.00897 2.07118 2.54708C2.07442 2.52812 2.08428 2.51092 2.09899 2.49853C2.1137 2.48613 2.13232 2.47935 2.15155 2.47938L10.9751 2.46668C10.9817 2.46659 10.9883 2.46796 10.9944 2.47069C11.0004 2.47343 11.0058 2.47746 11.0101 2.48251C11.0145 2.48755 11.0176 2.49348 11.0194 2.49989C11.0212 2.50629 11.0216 2.51302 11.0206 2.51958Z" fill="#454F5C"/>
<path d="M12.3778 2.47127L15.4036 2.46387C15.4136 2.46387 15.4235 2.46607 15.4326 2.4703C15.4416 2.47452 15.4497 2.48068 15.4561 2.48834C15.4626 2.49599 15.4673 2.50497 15.4699 2.51463C15.4725 2.52429 15.473 2.53441 15.4713 2.54427L14.1641 10.0045C14.1629 10.0108 14.1631 10.0173 14.1647 10.0235C14.1663 10.0298 14.1692 10.0356 14.1733 10.0406C14.1774 10.0457 14.1826 10.0497 14.1885 10.0527C14.1944 10.0555 14.2009 10.0572 14.2075 10.0574C15.8947 10.1046 17.5639 10.1088 19.2151 10.0701C19.228 10.0697 19.2407 10.0722 19.2525 10.0774C19.2643 10.0826 19.2747 10.0903 19.2831 10.1C19.2915 10.1098 19.2976 10.1212 19.301 10.1336C19.3045 10.146 19.3052 10.1589 19.303 10.1716L18.8175 12.8273C18.8128 12.8532 18.7989 12.8766 18.7782 12.8934C18.7575 12.9102 18.7314 12.9194 18.7044 12.9194L10.5228 12.9394C10.5128 12.9394 10.5029 12.9372 10.4939 12.9331C10.4849 12.9289 10.4769 12.9228 10.4706 12.9152C10.4642 12.9076 10.4596 12.8987 10.4571 12.8892C10.4546 12.8797 10.4543 12.8697 10.4561 12.8601L12.2594 2.56967C12.2643 2.54208 12.2789 2.51711 12.3006 2.49912C12.3222 2.48114 12.3496 2.47128 12.3778 2.47127Z" fill="#454F5C"/>
<path d="M21.6843 2.4565L24.7767 2.45544C24.7857 2.45552 24.7945 2.45747 24.8026 2.46118C24.8107 2.46489 24.8179 2.47025 24.8236 2.47691C24.8294 2.48356 24.8335 2.49133 24.8358 2.49969C24.8382 2.50804 24.8386 2.51678 24.837 2.52527L23.0148 12.876C23.0121 12.8913 23.0045 12.9052 22.9931 12.9154C22.9818 12.9256 22.9674 12.9315 22.9524 12.9321C22.8579 12.9342 22.6598 12.9332 22.358 12.9289C21.5578 12.919 20.7279 12.9264 19.8684 12.9511C19.855 12.9516 19.8417 12.9492 19.8293 12.9438C19.8169 12.9384 19.806 12.9303 19.7971 12.9201C19.7883 12.9098 19.7818 12.8977 19.7782 12.8846C19.7747 12.8714 19.774 12.8576 19.7764 12.8443L21.587 2.53586C21.5908 2.51368 21.6027 2.49355 21.6204 2.47903C21.6382 2.4645 21.6609 2.45653 21.6843 2.4565Z" fill="#454F5C"/>
<path d="M25.8877 2.47498H35.6377C35.6452 2.47503 35.6528 2.47673 35.6597 2.47997C35.6666 2.48321 35.6728 2.4879 35.6777 2.49373C35.6826 2.49956 35.6862 2.50639 35.6883 2.51374C35.6902 2.52109 35.6907 2.52881 35.6894 2.53634L35.2156 5.23008C35.2106 5.2576 35.196 5.28247 35.1741 5.30028C35.1522 5.31809 35.1246 5.32771 35.0962 5.32743L31.9223 5.30521C31.9027 5.30519 31.8837 5.31218 31.8686 5.32495C31.8535 5.33772 31.8433 5.35545 31.8398 5.37504L30.5284 12.8468C30.5236 12.8744 30.509 12.8995 30.4869 12.9174C30.4648 12.9354 30.4368 12.9453 30.4078 12.9453L27.4286 12.9505C27.4144 12.9505 27.4003 12.9475 27.3874 12.9416C27.3744 12.9358 27.363 12.9273 27.3537 12.9166C27.3446 12.9061 27.3379 12.8936 27.3342 12.8803C27.3305 12.867 27.3299 12.853 27.3323 12.8395L28.6322 5.38667C28.6337 5.37733 28.6332 5.36775 28.6308 5.35862C28.6284 5.3495 28.624 5.34105 28.6181 5.33388C28.6121 5.32671 28.6047 5.32099 28.5963 5.31714C28.588 5.31328 28.5789 5.31137 28.5697 5.31155L25.3748 5.32531C25.3654 5.32523 25.3562 5.32319 25.3477 5.31932C25.3392 5.31546 25.3317 5.30986 25.3257 5.30292C25.3196 5.29597 25.3152 5.28785 25.3128 5.27911C25.3102 5.27037 25.3098 5.26123 25.3113 5.25231L25.7819 2.56279C25.7864 2.53819 25.7994 2.51593 25.8188 2.49988C25.838 2.48384 25.8624 2.47502 25.8877 2.47498Z" fill="#454F5C"/>
<path d="M36.6764 2.47498H45.4989C45.5055 2.47502 45.5121 2.47652 45.5181 2.47938C45.5241 2.48225 45.5294 2.4864 45.5337 2.49155C45.5379 2.49669 45.541 2.50272 45.5427 2.50918C45.5443 2.51564 45.5445 2.52238 45.5433 2.52893L45.1287 4.92537C45.1242 4.95023 45.1112 4.97273 45.0919 4.98897C45.0726 5.0052 45.0482 5.01415 45.0229 5.01425H39.4262C39.4057 5.01415 39.3859 5.02122 39.3702 5.03419C39.3545 5.04717 39.344 5.06521 39.3405 5.08513L39.1131 6.377C39.1105 6.39153 39.1111 6.40646 39.1149 6.42074C39.1187 6.43502 39.1255 6.44829 39.135 6.4596C39.1445 6.47092 39.1563 6.48 39.1698 6.4862C39.1831 6.49241 39.1978 6.49558 39.2125 6.4955L44.1779 6.48809C44.1862 6.48815 44.1944 6.48998 44.2019 6.49345C44.2094 6.49693 44.2161 6.50196 44.2214 6.5082C44.2267 6.51444 44.2306 6.52174 44.2327 6.52959C44.2349 6.53745 44.2353 6.54567 44.234 6.55369L43.8733 8.63485C43.8695 8.65672 43.858 8.67653 43.8408 8.69068C43.8235 8.70484 43.8017 8.71242 43.7792 8.71209L38.8561 8.69195C38.8136 8.69175 38.7725 8.70631 38.7402 8.7331C38.7078 8.75982 38.6863 8.79704 38.6795 8.83799L38.4289 10.3256C38.4276 10.3319 38.4278 10.3384 38.4295 10.3447C38.4313 10.3509 38.4344 10.3568 38.4388 10.3617C38.4431 10.3667 38.4485 10.3707 38.4547 10.3734C38.4609 10.3761 38.4676 10.3775 38.4743 10.3774L44.2604 10.3838C44.2676 10.3838 44.2748 10.3854 44.2813 10.3885C44.2878 10.3915 44.2936 10.3959 44.2982 10.4014C44.3028 10.4068 44.3062 10.4131 44.3081 10.42C44.31 10.4268 44.3103 10.4339 44.3091 10.4409L43.8723 12.868C43.8683 12.8894 43.8568 12.9087 43.8399 12.9226C43.8229 12.9365 43.8014 12.9442 43.7792 12.9442L34.8246 12.9432C34.8158 12.9431 34.8071 12.9412 34.7991 12.9374C34.7911 12.9337 34.7841 12.9283 34.7784 12.9215C34.7728 12.9148 34.7687 12.9069 34.7664 12.8984C34.7641 12.8898 34.7638 12.8809 34.7653 12.8722L36.5759 2.55962C36.5802 2.53583 36.5925 2.5143 36.611 2.49881C36.6293 2.48333 36.6525 2.47489 36.6764 2.47498Z" fill="#454F5C"/>
<path d="M61.9897 2.47498L65.5072 2.48132C65.5222 2.48136 65.5368 2.4864 65.5485 2.49562C65.5602 2.50484 65.5684 2.5177 65.5717 2.53211L68.0537 12.904C68.055 12.9087 68.055 12.9134 68.0537 12.9181C68.0523 12.9227 68.0503 12.927 68.047 12.9307C68.0443 12.9343 68.0404 12.9372 68.0357 12.9392C68.0317 12.9412 68.0271 12.9422 68.0224 12.9421L64.8546 12.9527C64.8104 12.9527 64.7674 12.9372 64.7335 12.909C64.6994 12.8808 64.6764 12.8416 64.6685 12.7982L64.4073 11.3677C64.4046 11.3531 64.3967 11.34 64.3851 11.3305C64.3736 11.321 64.359 11.3158 64.3439 11.3159L60.2224 11.3095C60.2032 11.3096 60.1843 11.315 60.1675 11.3252C60.1508 11.3354 60.1369 11.3501 60.1272 11.3677L59.3256 12.8765C59.3182 12.8903 59.307 12.9019 59.2933 12.9101C59.2795 12.9183 59.2636 12.9227 59.2473 12.923L55.808 12.9505C55.746 12.9505 55.7304 12.9241 55.7615 12.8712L61.8723 2.54268C61.8845 2.52205 61.9018 2.50495 61.9224 2.49308C61.9429 2.48121 61.9661 2.47497 61.9897 2.47498ZM63.2778 5.45016L61.4069 8.96282C61.4002 8.97592 61.3969 8.99054 61.3973 9.00523C61.3978 9.01999 61.402 9.03428 61.4096 9.04685C61.4171 9.05941 61.4278 9.06978 61.4405 9.07689C61.4531 9.08407 61.4675 9.08779 61.482 9.08766H63.9155C63.9254 9.08766 63.9351 9.08553 63.9441 9.08128C63.953 9.07709 63.961 9.07091 63.9673 9.06326C63.9737 9.05562 63.9783 9.04665 63.9809 9.03694C63.9834 9.0273 63.9839 9.01713 63.9822 9.00723L63.3349 5.45862C63.3243 5.40078 63.3053 5.39796 63.2778 5.45016Z" fill="#454F5C"/>
<path d="M70.693 2.47661L73.2143 2.49248C73.2303 2.49275 73.2449 2.49758 73.2582 2.5064C73.2708 2.51522 73.2815 2.52765 73.2874 2.5422L75.594 7.83868C75.598 7.84765 75.604 7.8555 75.612 7.86135C75.6193 7.86726 75.6286 7.87099 75.6379 7.87225C75.6479 7.87358 75.6579 7.87232 75.6672 7.86866C75.6765 7.865 75.6844 7.85902 75.6904 7.85138L79.8968 2.49565C79.9061 2.48313 79.9194 2.47301 79.9341 2.46605C79.9487 2.45908 79.9653 2.45546 79.9819 2.45544L82.718 2.48084C82.7246 2.4809 82.7312 2.48241 82.7372 2.48523C82.7432 2.48805 82.7485 2.49213 82.7532 2.49718C82.7572 2.50223 82.7605 2.50812 82.7618 2.51444C82.7638 2.52075 82.7638 2.52734 82.7625 2.53374L80.9544 12.8803C80.9511 12.898 80.9411 12.9141 80.9265 12.9257C80.9119 12.9373 80.8939 12.9437 80.8747 12.9437L78.0934 12.9543C78.0788 12.9543 78.0642 12.9512 78.0509 12.9451C78.0376 12.9391 78.0256 12.9304 78.0163 12.9195C78.007 12.9086 77.9997 12.8958 77.9957 12.8821C77.9924 12.8684 77.9917 12.854 77.9937 12.84L78.8652 7.84293C78.8858 7.72727 78.8592 7.71531 78.7847 7.80697L76.0162 11.2424C76.0062 11.2551 75.9929 11.2656 75.9783 11.2732C75.9636 11.2808 75.9477 11.2855 75.9317 11.2868C75.4132 11.3284 74.8954 11.3263 74.3783 11.2805C74.3616 11.2792 74.3464 11.2737 74.3331 11.2644C74.3198 11.2551 74.3091 11.2424 74.3018 11.2276L72.6819 7.79215C72.6659 7.76044 72.6553 7.76217 72.65 7.79747L71.7499 12.8749C71.7466 12.8957 71.7353 12.9144 71.7187 12.928C71.7014 12.9415 71.6801 12.949 71.6582 12.949L68.855 12.9511C68.8457 12.951 68.8364 12.949 68.8278 12.945C68.8185 12.9411 68.8112 12.9354 68.8052 12.9283C68.7985 12.9213 68.7945 12.913 68.7919 12.9041C68.7892 12.8953 68.7892 12.886 68.7905 12.8771L70.6033 2.55279C70.6072 2.53128 70.6186 2.51181 70.6345 2.49785C70.6511 2.48389 70.6717 2.47637 70.693 2.47661Z" fill="#454F5C"/>
<path d="M84.3574 2.47498L87.4537 2.48132C87.4603 2.48138 87.467 2.48288 87.4729 2.4857C87.4789 2.48852 87.4842 2.4926 87.4889 2.49765C87.4929 2.5027 87.4962 2.50859 87.4975 2.51491C87.4995 2.52123 87.4995 2.52783 87.4982 2.53422L85.6941 12.8585C85.6908 12.8765 85.6815 12.893 85.6669 12.905C85.6522 12.917 85.6343 12.9237 85.615 12.9241L82.536 12.9548C82.5247 12.9549 82.5134 12.9526 82.5034 12.948C82.4928 12.9434 82.4835 12.9367 82.4762 12.9283C82.4689 12.92 82.4635 12.9101 82.4609 12.8995C82.4576 12.8889 82.4569 12.8778 82.4589 12.867L84.2749 2.54481C84.2783 2.52522 84.2882 2.50749 84.3035 2.49472C84.3188 2.48195 84.3374 2.47496 84.3574 2.47498Z" fill="#454F5C"/>
<path d="M91.6753 2.47449C91.6945 2.47448 91.7132 2.47922 91.7298 2.48828C91.7471 2.49733 91.761 2.5104 91.7717 2.52633L95.5513 8.33071C95.5732 8.36455 95.5872 8.36175 95.5938 8.3222L96.5963 2.52633C96.5989 2.50974 96.6076 2.49467 96.6209 2.48382C96.6341 2.47297 96.6508 2.46703 96.668 2.46708L99.5935 2.45544C99.6048 2.45547 99.6155 2.45789 99.6261 2.46253C99.6361 2.46718 99.6447 2.47392 99.652 2.48231C99.6593 2.49069 99.6647 2.5005 99.6673 2.51104C99.67 2.52157 99.6706 2.53257 99.6686 2.54326L97.8592 12.894C97.8566 12.908 97.8486 12.9206 97.838 12.9297C97.8267 12.9387 97.8127 12.9437 97.7988 12.9437L95.3452 12.9416C95.3286 12.9416 95.3127 12.9376 95.298 12.93C95.2841 12.9225 95.2721 12.9115 95.2635 12.8982L91.3874 6.93199C91.3429 6.86425 91.3137 6.8699 91.2997 6.94887L90.2514 12.8771C90.2494 12.8915 90.2421 12.9046 90.2301 12.9142C90.2188 12.9237 90.2042 12.9289 90.1896 12.9289L87.2442 12.9427C87.2355 12.9426 87.2269 12.9407 87.2189 12.9371C87.2109 12.9334 87.2043 12.9281 87.1983 12.9216C87.193 12.915 87.189 12.9074 87.187 12.8991C87.1844 12.8909 87.1844 12.8822 87.1857 12.8739L89.0037 2.52105C89.0064 2.50622 89.0144 2.49282 89.0257 2.48316C89.037 2.4735 89.0516 2.46819 89.0662 2.46814L91.6753 2.47449Z" fill="#454F5C"/>
<path d="M49.3719 2.46962C52.9508 2.46397 54.7765 2.46645 54.8491 2.47702C55.2334 2.53204 55.5242 2.60258 55.7216 2.68863C56.4683 3.0138 56.8846 3.56715 56.9707 4.34868C57.0362 4.94189 56.9812 5.57953 56.8057 6.26161C56.8017 6.27647 56.793 6.28961 56.781 6.29898C56.7689 6.30836 56.7542 6.31344 56.7391 6.31345L53.7588 6.32826C53.737 6.32826 53.7155 6.32337 53.6959 6.31395C53.6763 6.30452 53.659 6.29079 53.6452 6.27372C53.6313 6.25666 53.6214 6.23668 53.6159 6.2152C53.6105 6.19372 53.6098 6.17128 53.6138 6.14945C53.7542 5.41166 53.4982 5.04451 52.846 5.04804C51.3126 5.05792 50.5458 5.06285 50.5458 5.06285C50.2074 5.03323 49.9362 5.0618 49.7325 5.14856C49.5202 5.23884 49.3775 5.39402 49.3041 5.61409C49.3027 5.61902 49.2668 5.81617 49.1963 6.20553C48.9869 7.35387 48.793 8.50498 48.6146 9.65895C48.5286 10.2127 48.7669 10.4923 49.3295 10.498C50.2814 10.5071 51.2332 10.5117 52.1851 10.5117C52.6617 10.5047 52.9585 10.2747 53.0755 9.82187C53.1277 9.61946 53.1704 9.42689 53.2035 9.24422C53.2054 9.23379 53.205 9.22309 53.2024 9.21292C53.1998 9.20268 53.1951 9.19324 53.1885 9.18513C53.182 9.17709 53.1737 9.17057 53.1644 9.16619C53.1552 9.16173 53.145 9.15947 53.1348 9.15954L50.9773 9.14471C50.9698 9.14478 50.9624 9.14325 50.9557 9.14033C50.9489 9.13734 50.9428 9.13295 50.938 9.1275C50.9332 9.12205 50.9296 9.11567 50.9277 9.10875C50.9257 9.10184 50.9253 9.09466 50.9265 9.08761L51.2564 7.10592C51.2589 7.09097 51.2665 7.07727 51.2779 7.06724C51.2892 7.0572 51.3037 7.05142 51.3189 7.05088C52.3017 7.00575 53.2846 7.00223 54.2675 7.04032C55.0451 7.02336 55.8144 7.01672 56.5751 7.02024C56.5845 7.02024 56.5938 7.0223 56.6023 7.02629C56.6108 7.03021 56.6184 7.03593 56.6245 7.04304C56.6306 7.05015 56.6351 7.05853 56.6378 7.06757C56.6404 7.07654 56.641 7.08605 56.6396 7.09535C56.4972 8.05323 56.3358 8.99129 56.1552 9.90968C55.9846 10.7744 55.7971 11.3666 55.5926 11.6861C55.2161 12.2744 54.6443 12.6588 53.8772 12.8394C53.6065 12.9029 53.2557 12.9314 52.8249 12.9251C52.5055 12.9208 52.3437 12.9187 52.3394 12.9187C49.1518 12.9187 47.5581 12.9187 47.5581 12.9187C47.3155 12.899 47.0769 12.857 46.8421 12.7928C46.1596 12.6074 45.702 12.2085 45.4693 11.5962C45.3622 11.3141 45.304 10.9974 45.2948 10.6461C45.2892 10.4218 45.3213 10.105 45.3911 9.69597C45.6463 8.20346 45.9104 6.71201 46.1832 5.22156C46.2847 4.61848 46.4719 4.1004 46.7448 3.66731C47.0339 3.21024 47.404 2.89283 47.8552 2.71508C48.0668 2.63185 48.316 2.56696 48.603 2.5204C48.8046 2.48725 49.0609 2.47032 49.3719 2.46962Z" fill="#454F5C"/>
<path d="M103.778 2.45285C105.47 2.46908 107.162 2.47719 108.855 2.47719C109.361 2.47084 109.826 2.56995 110.249 2.7745C110.617 2.95295 110.894 3.23756 111.079 3.62833C111.299 4.09033 111.387 4.57949 111.341 5.09582C111.311 5.44356 111.248 5.82727 111.155 6.24695C111.151 6.26469 111.141 6.28058 111.127 6.29194C111.113 6.3033 111.096 6.30946 111.079 6.30938L108.05 6.33266C108.034 6.33288 108.02 6.32948 108.006 6.32272C107.992 6.31596 107.98 6.30603 107.971 6.29376C107.962 6.28148 107.956 6.26719 107.954 6.25207C107.951 6.23696 107.952 6.22142 107.957 6.20675C108.052 5.88228 108.042 5.59909 107.929 5.35715C107.85 5.18998 107.719 5.10287 107.534 5.09582C106.432 5.05208 105.33 5.05208 104.227 5.09582C104.031 5.10357 103.872 5.2256 103.751 5.4619C103.648 5.66292 103.578 5.87453 103.54 6.09671C103.167 8.28893 102.966 9.5004 102.938 9.73106C102.903 10.0309 102.982 10.2463 103.177 10.3775C103.289 10.4523 103.486 10.4939 103.767 10.5023C104.661 10.5313 105.554 10.5317 106.448 10.5034C106.736 10.4942 106.94 10.452 107.06 10.3764C107.245 10.26 107.37 10.0714 107.433 9.81043C107.495 9.55716 107.529 9.35861 107.538 9.21476C107.538 9.20812 107.537 9.20153 107.534 9.19529C107.532 9.1891 107.528 9.18345 107.524 9.1786C107.519 9.17375 107.513 9.16989 107.507 9.16717C107.501 9.16451 107.494 9.16305 107.487 9.16291L105.319 9.13752C105.312 9.13745 105.306 9.13593 105.3 9.133C105.293 9.13014 105.288 9.12602 105.284 9.12084C105.279 9.11572 105.276 9.10967 105.274 9.10322C105.272 9.09677 105.272 9.09006 105.274 9.08355L105.612 7.0976C105.615 7.08304 105.623 7.06981 105.634 7.06038C105.646 7.05087 105.661 7.04575 105.675 7.04575L110.891 7.0278C110.907 7.0276 110.923 7.03106 110.938 7.03777C110.952 7.04455 110.965 7.05446 110.975 7.06676C110.985 7.07912 110.992 7.09361 110.996 7.10917C111 7.12472 111.001 7.14101 110.998 7.15689C110.835 8.03573 110.685 8.90048 110.549 9.75113C110.498 10.0608 110.433 10.3669 110.353 10.6695C110.26 11.0208 110.15 11.3118 110.021 11.5424C109.505 12.4629 108.685 12.9238 107.559 12.9253C105.779 12.9273 103.998 12.9273 102.218 12.9253C101.634 12.94 101.16 12.8498 100.797 12.6544C100.052 12.253 99.668 11.6203 99.6447 10.7563C99.6374 10.4636 99.658 10.1726 99.7086 9.88341C99.9791 8.30342 100.259 6.72482 100.547 5.14766C100.627 4.71034 100.765 4.29277 100.962 3.89495C101.251 3.3088 101.706 2.90781 102.325 2.69197C102.795 2.52762 103.279 2.44791 103.778 2.45285Z" fill="#454F5C"/>
</g>
<defs>
<clipPath id="clip0_1_1210">
<rect width="157.541" height="15.9535" fill="white" transform="translate(0.259766)"/>
</clipPath>
</defs>
</svg>
