<svg width="161" height="41" viewBox="0 0 161 41" fill="none" xmlns="http://www.w3.org/2000/svg">
<path fill-rule="evenodd" clip-rule="evenodd" d="M0.540039 12.7657C0.540039 12.6073 0.647902 12.4688 0.802813 12.4282L12.0294 8.22397L17.1761 14.901H5.95801L20.1913 34.8514L18.4273 22.2693H28.4839L23.1836 4.04688L33.9901 0V28.1343C33.9901 28.2542 33.9278 28.3658 33.8252 28.4297L17.4535 40.8296C17.3384 40.9014 17.1918 40.9014 17.0767 40.8296L0.70498 28.4297C0.602315 28.3658 0.540039 28.2542 0.540039 28.1343V12.7657Z" fill="#454F5C"/>
<path d="M101.337 31.9432V33.9187H104.401V35.2356H99.7999V27.5534H104.401V28.8704H101.337V30.6263H103.742V31.9432H101.337Z" fill="#454F5C"/>
<path d="M92.5533 27.5534H94.0908V34.5552L92.8169 35.2905H89.3795L88.1055 34.5552V27.5534H89.643V33.8638H92.5533V27.5534Z" fill="#454F5C"/>
<path d="M79.7037 32.5469V31.2299H82.5042V34.5552L81.2303 35.2905H78.1223L76.8483 34.5552V28.2338L78.1223 27.4985H81.2303L82.5042 28.2338V29.8032H80.9667V28.8155H78.3859V33.9735H80.9667V32.5469H79.7037Z" fill="#454F5C"/>
<path d="M69.2725 27.5534L72.0181 35.2356H70.5025L69.9205 33.5785H67.0431L66.4611 35.2356H64.9455L67.6911 27.5534H69.2725ZM68.4708 29.4849L67.5044 32.2615H69.4482L68.4928 29.4849H68.4708Z" fill="#454F5C"/>
<path d="M57.3807 31.9432V33.9187H60.4447V35.2356H55.8432V27.5534H60.4447V28.8704H57.3807V30.6263H59.7858V31.9432H57.3807Z" fill="#454F5C"/>
<path d="M46.6263 35.2356V27.5534H48.1638V33.9187H50.7885V35.2356H46.6263Z" fill="#454F5C"/>
<path d="M155.779 21.8963L153.243 17.1344H151.685V21.8963H147.391V6.31995H154.155C157.493 6.31995 159.941 8.58964 159.941 11.8384C159.941 13.7521 159.006 15.332 157.471 16.2443L160.564 21.8963H155.779ZM151.685 10.1473V13.5296H153.643C154.845 13.5296 155.535 12.7953 155.535 11.8384C155.535 10.8593 154.845 10.1473 153.643 10.1473H151.685Z" fill="#454F5C"/>
<path d="M139.032 18.1802H144.928V21.8963H134.759V6.31995H144.728V10.036H139.032V12.328H144.15V15.8438H139.032V18.1802Z" fill="#454F5C"/>
<path d="M132.844 6.31995V10.1918H128.616V21.8963H124.299V10.1918H120.071V6.31995H132.844Z" fill="#454F5C"/>
<path d="M112.99 22.2961C109.185 22.2961 106.715 20.2711 106.715 16.8666H111.143C111.143 17.9792 112.011 18.5355 112.99 18.5355C113.88 18.5355 114.748 18.0459 114.748 17.2004C114.748 16.2213 113.524 15.932 112.033 15.576C109.786 15.0197 106.915 14.3299 106.915 10.7918C106.915 7.72104 109.163 5.96313 112.834 5.96313C116.573 5.96313 118.731 7.8768 118.731 11.0588H114.414C114.414 10.0575 113.68 9.5902 112.79 9.5902C112.033 9.5902 111.299 9.92398 111.299 10.6583C111.299 11.5484 112.478 11.8376 113.925 12.2159C116.239 12.7945 119.221 13.5733 119.221 17.1114C119.221 20.5159 116.617 22.2961 112.99 22.2961Z" fill="#454F5C"/>
<path d="M96.7655 13.576H105.31C105.31 18.6717 101.972 22.2988 97.0993 22.2988C92.3374 22.2988 88.7993 18.872 88.7993 14.1323C88.7993 9.39265 92.2706 5.9436 97.0548 5.9436C101.149 5.9436 104.487 8.50257 105.154 12.1074H100.637C100.081 10.7945 98.6792 9.94895 97.0993 9.94895C94.7628 9.94895 93.2052 11.6401 93.2052 14.1323C93.2052 16.6023 94.7406 18.2934 97.0993 18.2934C98.7459 18.2934 100.148 17.4924 100.637 16.2908H96.7655V13.576Z" fill="#454F5C"/>
<path d="M84.1098 21.8963L83.2642 19.3818H77.7457L76.8779 21.8963H72.2717L78.391 6.31995H82.5966L88.8494 21.8963H84.1098ZM82.2183 16.0218L80.4827 11.1931L78.7915 16.0218H82.2183Z" fill="#454F5C"/>
<path d="M67.1987 21.8963L64.662 17.1344H63.1044V21.8963H58.8098V6.31995H65.5743C68.9121 6.31995 71.3598 8.58964 71.3598 11.8384C71.3598 13.7521 70.4253 15.332 68.8899 16.2443L71.9829 21.8963H67.1987ZM63.1044 10.1473V13.5296H65.0625C66.2642 13.5296 66.954 12.7953 66.954 11.8384C66.954 10.8593 66.2642 10.1473 65.0625 10.1473H63.1044Z" fill="#454F5C"/>
<path d="M56.5488 10.214H50.9636V12.684H55.9703V16.4446H50.9636V21.8963H46.6245V6.31995H56.5488V10.214Z" fill="#454F5C"/>
</svg>
