<svg width="107" height="40" viewBox="0 0 107 40" fill="none" xmlns="http://www.w3.org/2000/svg">
<g clip-path="url(#clip0_1_1226)">
<path d="M50.8732 35.4858H53.6282C53.6282 37.7177 51.9891 39.5339 49.9744 39.5339H47.5507C45.5364 39.5339 43.8963 37.7177 43.8963 35.4858C43.8963 34.3134 44.3514 33.259 45.0731 32.5194L45.0724 32.5183C44.0848 31.4625 43.4741 30.007 43.4741 28.4041C43.4741 26.0443 44.8008 24.006 46.7013 23.1007L45.5525 22.1964L47.2567 20.0317L51.1784 23.1188H51.1791C51.1806 23.1188 51.1806 23.1204 51.1806 23.1204L51.1842 23.1229C53.0568 24.0412 54.3613 26.0616 54.3613 28.4034C54.3613 31.6124 51.9187 34.2207 48.92 34.2207C48.7504 34.2207 48.5848 34.2117 48.4198 34.1928C48.4177 34.1921 48.4152 34.1921 48.4116 34.191H47.5507C47.0721 34.191 46.6524 34.7953 46.6524 35.484C46.6524 36.1728 47.0721 36.7771 47.5507 36.7771H49.9744C50.4535 36.7789 50.8732 36.1753 50.8732 35.4858ZM46.2298 28.4041C46.2298 29.9587 47.2517 31.2429 48.5669 31.4378H49.2735C50.5844 31.2429 51.6063 29.9587 51.6063 28.4041C51.6063 26.7191 50.3984 25.3457 48.92 25.3457C47.4377 25.3466 46.2298 26.7191 46.2298 28.4041Z" fill="#454F5C"/>
<path d="M65.6428 28.4028C65.6428 28.4046 65.6428 34.0849 65.6428 34.0867H62.8878V33.4587C62.0981 33.9457 61.1797 34.2212 60.2025 34.2212C57.2 34.2212 54.7563 31.6129 54.7563 28.4035C54.7563 25.1985 57.1989 22.5903 60.2025 22.5903C61.1797 22.5903 62.0981 22.8659 62.8878 23.3528V22.6551H65.6428V28.3996C65.6428 28.4014 65.6428 28.4014 65.6428 28.4028ZM62.8878 28.3978C62.8853 26.7154 61.6792 25.3445 60.2025 25.3445C58.7191 25.3445 57.5113 26.717 57.5113 28.4028C57.5113 30.0927 58.7191 31.4651 60.2025 31.4651C61.6792 31.4651 62.886 30.0952 62.8878 28.4078V28.3978Z" fill="#454F5C"/>
<path d="M85.38 27.9842V34.0888H82.6254V27.9842C82.6254 26.5781 81.4807 25.4343 80.0748 25.4343C78.6683 25.4343 77.5249 26.5789 77.5249 27.9842V34.0888H74.7696V27.9842C74.7696 26.5781 73.625 25.4343 72.2191 25.4343C70.8125 25.4343 69.6692 26.5789 69.6692 27.9842V34.0888H66.9138V22.6572H69.6692V23.3353C70.4256 22.9179 71.2957 22.6793 72.2191 22.6793C73.7765 22.6793 75.1751 23.3582 76.1469 24.4307C77.1181 23.3582 78.5167 22.6793 80.0748 22.6793C83.0003 22.6785 85.38 25.0588 85.38 27.9842Z" fill="#454F5C"/>
<path d="M96.5441 29.7862L89.0918 29.7632C89.5558 30.6634 90.4459 31.3471 91.4702 31.476C92.9672 31.6646 94.0873 30.5296 94.2109 30.3969L96.2177 32.2835C95.8873 32.637 94.2342 34.2531 91.8139 34.2531C91.5892 34.2531 91.3592 34.2392 91.1199 34.212C88.2503 33.8449 86.0002 31.2964 86.0002 28.4037C86.0002 26.8106 86.6709 25.1896 87.7962 24.0687C88.7654 23.1086 90.0051 22.6035 91.3047 22.5903C92.6774 22.5994 93.9862 23.1783 94.9866 24.2204C96.0608 25.3363 96.6451 26.8786 96.5893 28.4537L96.5441 29.7862ZM93.5867 27.0221C93.4438 26.6916 93.247 26.3883 92.9984 26.1316C92.5165 25.6265 91.9103 25.3511 91.2854 25.3462C90.5828 25.3511 90.051 25.7135 89.7386 26.0259C89.4627 26.2965 89.2334 26.6367 89.0672 27.0081L93.5867 27.0221Z" fill="#454F5C"/>
<path d="M105.513 32.4494C104.878 33.4719 103.667 34.131 102.193 34.2598C102.023 34.2749 101.854 34.282 101.688 34.282C100.253 34.282 98.9343 33.7457 98.0901 32.8011C97.4074 32.0372 97.0372 31.0154 97.0205 29.8472L99.7758 29.8086C99.7805 30.1538 99.8483 30.635 100.145 30.9653C100.5 31.3639 101.212 31.5803 101.954 31.5148C102.606 31.4583 103.042 31.2057 103.173 30.9957C103.247 30.8762 103.363 30.5456 103.244 30.2915C103.072 29.9273 102.189 29.7445 101.412 29.5831C100.071 29.3052 98.4005 28.9592 97.662 27.338C97.1362 26.1852 97.4028 24.9824 97.8275 24.2411C98.4411 23.1686 99.6688 22.4487 101.114 22.3143C102.649 22.1733 104.099 22.7112 104.991 23.759C105.56 24.4272 105.88 25.3087 105.915 26.3082L103.161 26.4049C103.152 26.1458 103.098 25.7859 102.894 25.5456C102.592 25.1914 101.995 24.9988 101.37 25.0586C100.843 25.1078 100.381 25.3291 100.219 25.6105C100.173 25.69 100.066 25.9695 100.171 26.1967C100.329 26.546 101.202 26.7271 101.973 26.8871C103.312 27.1642 104.977 27.5094 105.736 29.118C106.323 30.3653 105.982 31.6927 105.513 32.4494Z" fill="#454F5C"/>
<mask id="mask0_1_1226" style="mask-type:luminance" maskUnits="userSpaceOnUse" x="0" y="1" width="44" height="38">
<path d="M43.4966 1.13635H0.316101V38.6745H43.4966V1.13635Z" fill="white"/>
</mask>
<g mask="url(#mask0_1_1226)">
<path fill-rule="evenodd" clip-rule="evenodd" d="M11.1398 34.9326L8.95236 31.1328C11.0827 27.3907 13.2702 23.6488 15.4002 19.9065L13.2699 16.1642C11.0824 19.9065 8.95203 23.6484 6.76361 27.3907L4.63332 23.6484C6.76361 19.849 8.9511 16.1642 11.0812 12.3638L8.95083 8.67901C6.76334 12.4213 4.633 16.1633 2.50297 19.9056L0.316101 16.1633L8.95236 1.13635L19.719 19.9056L11.1398 34.9326Z" fill="#454F5C"/>
<path fill-rule="evenodd" clip-rule="evenodd" d="M41.3723 19.9634H24.0423L17.5945 31.1907H30.5486L28.4183 34.9332H15.4067L13.2763 38.6753H30.5483L37.0545 27.4489H24.043L26.2304 23.7065H39.1844L41.3723 19.9634Z" fill="#454F5C"/>
<path fill-rule="evenodd" clip-rule="evenodd" d="M34.8658 1.19202L43.5021 16.219H39.1844C37.054 12.4767 34.8665 8.67622 32.7364 4.93428H28.4186C30.5489 8.67656 32.6789 12.477 34.8665 16.219H21.9123L13.2763 1.19202H34.8658ZM19.7242 4.93428L24.042 12.477H28.3598L24.042 4.93428H19.7242Z" fill="#454F5C"/>
</g>
</g>
<defs>
<clipPath id="clip0_1_1226">
<rect width="106.357" height="38.5543" fill="white" transform="translate(0.00683594 0.978027)"/>
</clipPath>
</defs>
</svg>
