<svg width="107" height="34" viewBox="0 0 107 34" fill="none" xmlns="http://www.w3.org/2000/svg">
<g clip-path="url(#clip0_1_1207)">
<path fill-rule="evenodd" clip-rule="evenodd" d="M11.0037 27.1687C14.0777 28.9144 18.249 28.9645 21.6991 27.1928C22.9408 26.5501 24.0067 25.6139 24.8042 24.4655C25.2044 23.9066 24.73 23.7755 24.2763 23.7755H13.4274C12.7684 23.7755 12.4734 23.5857 12.4734 22.9336V20.5807C12.4734 20.0631 12.4251 19.9027 12.8184 19.5594C13.8535 18.6676 16.0961 17.0443 17.5399 15.4555C19.5393 13.2612 18.3887 10.7288 15.0162 11.3567C12.2664 11.8743 9.56668 13.3664 8.0055 15.5659C5.22469 19.4818 6.94801 24.864 10.9898 27.1601L11.0037 27.1687ZM17.4916 0.000628106C20.2369 -0.00319755 22.9392 0.681879 25.351 1.99308C25.7823 2.22769 25.6685 2.35534 25.4494 2.70035C24.8611 3.62671 24.2418 4.60828 23.921 5.09992C23.7968 5.29313 23.6777 5.38973 23.2637 5.32935C21.5783 5.08267 19.974 4.76871 18.2731 4.53237C17.1587 4.37884 17.2501 4.28914 16.6187 4.83599C15.8563 5.49669 15.0662 6.06941 14.4728 6.64385C14.1916 6.91814 14.4176 7.31318 14.8178 7.23383C23.2033 5.57949 27.1003 13.2992 19.8067 18.8642C19.3202 19.2351 19.5721 19.5836 20.1189 19.5542H25.6167C26.4275 19.5542 26.7018 19.6802 26.8381 18.8815L27.9938 12.1175C28.2716 10.489 28.1922 10.6546 27.6264 9.78347C27.0606 8.91232 26.1049 7.61507 25.4252 6.62488C25.2424 6.36094 25.2769 6.18326 25.3666 6.04181L26.945 3.55255C27.1641 3.18166 27.2124 3.1644 27.5678 3.43868C29.5623 4.97685 31.1768 6.95252 32.287 9.21334C33.3973 11.4742 33.9734 13.9597 33.9712 16.4785C33.9712 20.8491 32.2349 25.0408 29.1445 28.1313C26.054 31.2217 21.8623 32.958 17.4916 32.958C13.121 32.958 8.92934 31.2217 5.83883 28.1313C2.74832 25.0408 1.01208 20.8491 1.01208 16.4785C1.01208 14.3143 1.43835 12.1714 2.26653 10.172C3.0947 8.17261 4.30856 6.35591 5.83883 4.82565C7.3691 3.29538 9.18579 2.0815 11.1852 1.25334C13.1846 0.425169 15.3275 -0.00109863 17.4916 -0.00109863" fill="#454F5C"/>
<path d="M98.3796 18.1409H104.536C104.833 18.1409 104.981 17.9926 104.981 17.72V15.0427C104.981 14.7702 104.833 14.6201 104.536 14.6201H98.3881V11.2217H105.354C105.651 11.2217 105.799 11.0734 105.799 10.8008V8.07346C105.808 8.01294 105.802 7.95124 105.783 7.89324C105.763 7.83524 105.731 7.78251 105.688 7.73921C105.645 7.69589 105.592 7.66318 105.534 7.64366C105.476 7.62413 105.414 7.61831 105.354 7.62666H94.8432C94.7825 7.61802 94.7208 7.62361 94.6625 7.64302C94.6043 7.66241 94.5514 7.69508 94.5081 7.73843C94.4648 7.78176 94.4322 7.8346 94.4128 7.89276C94.3933 7.95091 94.3878 8.01277 94.3965 8.07346V24.9049C94.3882 24.9655 94.3939 25.027 94.4135 25.085C94.433 25.143 94.4656 25.1956 94.5089 25.2387C94.5522 25.2818 94.605 25.3144 94.663 25.3336C94.7211 25.3529 94.7827 25.3586 94.8432 25.35H105.744C105.804 25.3565 105.865 25.3495 105.922 25.3294C105.979 25.3094 106.03 25.2768 106.073 25.234C106.116 25.1914 106.148 25.1397 106.168 25.0828C106.188 25.0257 106.196 24.9649 106.189 24.9049V22.1776C106.193 22.1191 106.184 22.0606 106.163 22.0061C106.141 21.9514 106.108 21.9023 106.066 21.8621C106.023 21.8219 105.972 21.7915 105.916 21.7732C105.861 21.7551 105.802 21.7494 105.744 21.7567H98.3814L98.3796 18.1409ZM76.2986 25.3534C76.3592 25.362 76.4207 25.3565 76.4787 25.3372C76.5367 25.3179 76.5893 25.2855 76.6324 25.2422C76.6757 25.199 76.7081 25.1464 76.7275 25.0884C76.7468 25.0305 76.7525 24.9689 76.7439 24.9084V21.6307C76.7439 19.3743 76.6454 16.302 76.497 13.6954L76.5953 13.6696C77.0663 14.8098 78.0584 17.0162 78.8519 18.6533L80.0905 21.1063C80.1245 21.2084 80.1921 21.2961 80.2823 21.3547C80.3727 21.4134 80.4802 21.4394 80.5873 21.4289H82.966C83.0724 21.4363 83.1785 21.4089 83.2679 21.3506C83.3572 21.2924 83.425 21.2067 83.4613 21.1063L84.6688 18.6533C85.4606 17.0162 86.4524 14.8098 86.9233 13.6696L87.0233 13.6954C86.8733 16.2986 86.7749 19.3709 86.7749 21.6307V24.9084C86.7687 24.9686 86.776 25.0293 86.7962 25.0862C86.8165 25.1431 86.8495 25.1949 86.8922 25.2377C86.935 25.2803 86.9868 25.3129 87.0437 25.3329C87.1008 25.3529 87.1619 25.36 87.2219 25.3534H90.2942C90.5668 25.3534 90.7169 25.2051 90.7169 24.9084V8.07691C90.7169 7.7802 90.5668 7.63011 90.2942 7.63011H86.7749C86.6683 7.6218 86.5621 7.6489 86.4725 7.70724C86.383 7.76558 86.3152 7.85189 86.2798 7.9527L84.0235 12.2654C83.28 13.7541 82.2139 16.1571 81.8171 17.149H81.7189C81.2963 16.1571 80.2561 13.7541 79.4867 12.2654L77.2562 7.9527C77.2179 7.8538 77.1494 7.76941 77.0606 7.71152C76.9717 7.65361 76.8669 7.62516 76.7609 7.63011H73.2402C73.1797 7.62178 73.1181 7.6276 73.0602 7.64712C73.0022 7.66665 72.9494 7.69934 72.9063 7.74266C72.8631 7.78596 72.8305 7.83869 72.8112 7.89669C72.7921 7.9547 72.7864 8.01639 72.795 8.07691V24.9084C72.7864 24.9689 72.7919 25.0305 72.8112 25.0884C72.8305 25.1464 72.863 25.199 72.9063 25.2422C72.9494 25.2855 73.0022 25.3179 73.0602 25.3372C73.1181 25.3565 73.1797 25.362 73.2402 25.3534H76.2986ZM62.6897 11.9687H62.7879C63.2847 13.6299 64.0524 16.3313 64.7477 18.5118H60.7558C61.4251 16.3313 62.1946 13.6299 62.6897 11.9687ZM58.3044 25.3534C58.4167 25.3564 58.5266 25.3213 58.6165 25.2541C58.7064 25.1868 58.7709 25.091 58.7995 24.9825L59.7416 21.9585H65.7654L66.6814 24.9825C66.714 25.0931 66.7826 25.1897 66.8763 25.257C66.9701 25.3241 67.0837 25.3581 67.1989 25.3534H70.4957C70.8183 25.3534 70.9666 25.155 70.8407 24.8583L65.0909 7.97684C65.0617 7.87521 64.9998 7.78616 64.9146 7.7237C64.8292 7.66123 64.7257 7.62891 64.6201 7.63182H60.8524C60.7475 7.63227 60.6457 7.66589 60.561 7.72787C60.4765 7.78986 60.4137 7.87699 60.3816 7.97684L54.6302 24.8583C54.5302 25.155 54.6544 25.3534 54.9752 25.3534H58.3044ZM53.2466 23.0988C53.3088 23.0329 53.3566 22.9545 53.3863 22.8688C53.4161 22.7832 53.4272 22.6922 53.4191 22.6019V15.4636C53.4256 15.4068 53.4194 15.3491 53.4006 15.295C53.3818 15.2409 53.3509 15.1918 53.3104 15.1513C53.27 15.1108 53.221 15.08 53.1669 15.0612C53.1129 15.0424 53.0551 15.0361 52.9981 15.0427H46.9744C46.9173 15.0358 46.8593 15.0419 46.805 15.0606C46.7508 15.0793 46.7013 15.11 46.6608 15.1506C46.6201 15.1911 46.589 15.2403 46.5702 15.2946C46.5512 15.3488 46.5448 15.4066 46.5516 15.4636V17.8925C46.5516 18.1909 46.7018 18.3393 46.9744 18.3393H49.6256V21.1891C48.7833 21.6604 47.8305 21.8986 46.8655 21.8791C44.9818 21.8791 43.7432 20.9114 43.7432 18.9293V13.9956C43.7432 12.0877 44.9335 11.0716 46.8172 11.0716C48.2784 11.0716 49.5929 11.3925 50.659 12.0135C50.8815 12.1619 51.0799 12.1619 51.2541 11.9135L52.9136 9.53459C52.9523 9.48804 52.9799 9.4335 52.9947 9.3749C53.0097 9.3163 53.0114 9.25514 52.9997 9.19584C52.988 9.13654 52.963 9.08058 52.9269 9.03206C52.8908 8.98353 52.8446 8.94365 52.7913 8.91529C51.1542 7.8975 48.9477 7.30408 46.8414 7.30408C42.6271 7.30408 39.7031 9.58461 39.7031 13.8714V19.0466C39.7031 23.3592 42.6529 25.6657 46.8655 25.6657C49.4531 25.6657 51.725 24.6306 53.2362 23.0884" fill="#454F5C"/>
</g>
<defs>
<clipPath id="clip0_1_1207">
<rect width="105.402" height="33.1213" fill="white" transform="translate(0.850586)"/>
</clipPath>
</defs>
</svg>
