<svg width="145" height="22" viewBox="0 0 145 22" fill="none" xmlns="http://www.w3.org/2000/svg">
<path d="M3.34666 0.781411C3.38819 0.468111 3.65721 0.233683 3.97589 0.233043L8.46616 0.224724C8.85067 0.22403 9.14784 0.559355 9.09772 0.937394L8.85115 2.7981C8.77785 3.35111 9.41152 3.71923 9.86212 3.38535L13.6422 0.339805C13.7518 0.25864 13.8848 0.214698 14.0215 0.214378L23.9377 0.121695C24.5634 0.120415 24.8145 0.921929 24.2982 1.27245L14.1906 7.11487C13.9303 7.2916 13.8401 7.63087 13.9786 7.91196L21.7103 19.5083C21.9162 19.926 21.6108 20.4136 21.1419 20.4156L10.6715 20.5299C10.4758 20.5308 10.2906 20.4422 10.1695 20.2898L7.9856 17.5437C7.63728 17.1057 6.92919 17.299 6.85589 17.852L6.59222 19.8416C6.55076 20.1542 6.28273 20.3884 5.96471 20.3899L1.47285 20.4104C1.08761 20.4122 0.789309 20.0765 0.83951 19.6977L3.34666 0.781411Z" fill="#454F5C"/>
<path d="M51.8174 20.4187C52.1355 20.4173 52.4035 20.1831 52.4449 19.8704L54.984 0.712725C55.034 0.334632 54.7372 -0.000692186 54.3525 1.07305e-06L49.8622 0.00837369C49.5435 0.0089603 49.2745 0.243389 49.233 0.556689L46.6922 19.7265C46.642 20.1053 46.9403 20.441 47.3256 20.4392L51.8174 20.4187Z" fill="#454F5C"/>
<path fill-rule="evenodd" clip-rule="evenodd" d="M44.1039 20.5505C44.4221 20.5492 44.6903 20.315 44.7318 20.0021L47.2704 0.848764C47.3205 0.470671 47.0233 0.135347 46.6386 0.136093L26.7529 0.175929C26.4343 0.176569 26.1653 0.410997 26.1237 0.724244L23.5825 19.8981C23.5322 20.2769 23.8305 20.6125 24.2158 20.6108L28.7076 20.5903C29.0257 20.5888 29.2937 20.3546 29.3352 20.0419L29.9478 15.4198C29.9894 15.1057 30.2595 14.8711 30.5789 14.8714L38.9147 14.8803C39.2985 14.8808 39.5944 15.2157 39.5444 15.5931L38.9794 19.8559C38.9292 20.2345 39.2273 20.5701 39.6124 20.5686L44.1039 20.5505ZM30.8664 8.48891C30.8164 8.86625 31.1123 9.20115 31.4961 9.20158L39.8319 9.21048C40.1513 9.21086 40.4214 8.97616 40.463 8.66217L40.7002 6.87233C40.7502 6.49499 40.4543 6.16004 40.0705 6.15961L31.7347 6.1507C31.4153 6.15038 31.1452 6.38503 31.1036 6.69907L30.8664 8.48891Z" fill="#454F5C"/>
<path d="M144.662 1.64292C144.712 1.26483 144.415 0.929555 144.03 0.930248L139.54 0.938567C139.221 0.939154 138.952 1.17358 138.911 1.48694L137.641 11.0623C137.567 11.6221 136.845 11.8104 136.503 11.3594L128.894 1.339C128.773 1.18051 128.585 1.0874 128.385 1.08778L123.486 1.0969C123.167 1.09748 122.898 1.33191 122.857 1.64521L120.397 20.2051C120.346 20.5839 120.645 20.9196 121.03 20.9178L125.522 20.8973C125.84 20.8959 126.108 20.6617 126.15 20.349L127.379 11.0735C127.453 10.5183 128.165 10.3266 128.512 10.7688L136.165 20.5366C136.284 20.6889 136.467 20.7787 136.662 20.7803L141.557 20.819C141.878 20.8215 142.151 20.5863 142.193 20.2706L144.662 1.64292Z" fill="#454F5C"/>
<path d="M118.056 20.9336L118.662 16.3629C118.712 15.9857 118.416 15.6507 118.032 15.6503L104.412 15.6341C104.028 15.6336 103.732 15.2987 103.782 14.9214L103.82 14.6317C103.862 14.3178 104.132 14.0831 104.451 14.0834L109.747 14.0882C110.066 14.0885 110.336 13.8538 110.378 13.5398L110.963 9.12756C111.013 8.75021 110.717 8.41526 110.333 8.41489L105.369 8.41041C104.985 8.41004 104.689 8.07509 104.739 7.69769L104.819 7.09898C104.86 6.78488 105.131 6.55024 105.45 6.55061L119.402 6.56714C119.721 6.56751 119.991 6.33287 120.032 6.01883L120.589 1.81826C120.64 1.44011 120.342 1.10479 119.958 1.10559L100.392 1.1458C100.074 1.14644 99.805 1.38087 99.7631 1.69411L97.2952 20.3136C97.2452 20.6924 97.5437 21.028 97.9287 21.0263L118.052 20.9367C118.054 20.9367 118.056 20.9354 118.056 20.9336Z" fill="#454F5C"/>
<path d="M95.27 21.0334C95.2721 21.0333 95.2759 21.0349 95.2764 21.0326L95.8943 16.3688C95.9443 15.9915 95.6486 15.6565 95.2646 15.6561L86.317 15.6453C85.6927 15.6446 85.4432 14.8445 85.9589 14.4946L97.1398 6.90262C97.1506 6.89511 97.1538 6.86631 97.1554 6.85394L97.8131 1.8942C97.8631 1.51669 97.5668 1.18169 97.1828 1.18153L96.601 1.18131C96.5929 1.18131 96.5859 1.17502 96.5848 1.16686C96.5843 1.15865 96.5773 1.15236 96.5692 1.15241L94.7058 1.15646C94.6945 1.15646 94.6832 1.1603 94.6741 1.16734C94.6644 1.17438 94.6531 1.17822 94.6413 1.17822L87.8083 1.16926L77.6174 1.18878C77.2985 1.18937 77.0296 1.4238 76.9882 1.7371L76.4074 6.11663C76.3574 6.49397 76.6537 6.82893 77.0372 6.8293L85.0984 6.83746C85.7099 6.8381 85.968 7.61028 85.4786 7.97307L75.362 15.4683C75.2243 15.5701 75.1345 15.7226 75.1119 15.8912L74.5134 20.4097C74.4628 20.7884 74.7613 21.124 75.1463 21.1223L95.27 21.0334Z" fill="#454F5C"/>
<path d="M57.7498 14.1097L58.4946 8.48965C58.5371 8.16852 58.8184 7.93158 59.1448 7.94161L62.785 8.05359C63.1114 8.06362 63.3922 7.82674 63.4352 7.50555L63.7342 5.24595C63.7982 4.76493 64.3628 4.53253 64.7511 4.82749L71.8137 10.1898C72.1455 10.442 72.1461 10.938 71.8143 11.1905L63.169 17.7718C62.7199 18.1138 62.0778 17.7464 62.1515 17.1895L62.3569 15.6386C62.4059 15.2688 62.1225 14.9378 61.746 14.9262L58.3607 14.8221C57.9843 14.8105 57.7009 14.4796 57.7498 14.1097Z" fill="#454F5C"/>
</svg>
