<svg width="96" height="38" viewBox="0 0 96 38" fill="none" xmlns="http://www.w3.org/2000/svg">
<path fill-rule="evenodd" clip-rule="evenodd" d="M79.0692 0.298818C77.0527 1.19787 76.5915 1.72597 76.1955 3.58917C75.8653 5.14175 75.6073 5.58174 74.0093 7.31671C71.4873 10.0551 71.3285 10.1747 69.5229 10.6943C67.4926 11.2783 66.7681 11.9545 66.1816 13.8127C65.7479 15.186 65.7471 15.3723 66.1723 16.358C66.4247 16.9428 66.7597 17.9266 66.9168 18.5439C67.5958 21.2125 72.3108 27.734 74.7072 29.3188C76.1003 30.24 76.75 30.3694 77.6283 29.9C78.5582 29.403 79.0259 28.0429 79.4109 24.7136C79.7212 22.0332 79.9148 21.2952 80.5693 20.2999C81.6381 18.6753 85.4004 14.9511 86.59 14.3402C87.1223 14.0669 88.8145 13.6682 90.3503 13.4538C94.628 12.8567 95.8415 12.0642 95.4739 10.1073C94.9863 7.51313 88.0686 2.30766 82.812 0.579702C80.7087 -0.111704 80.0933 -0.157723 79.0692 0.298818ZM4.1364 2.47939C4.07711 2.67244 3.8163 4.02972 3.55662 5.49587C3.29694 6.96203 3.02462 8.38272 2.95155 8.65266C2.83014 9.10191 3.12804 9.14372 6.44233 9.14372H10.0658L10.5593 6.26753C10.8307 4.68549 11.1194 3.10738 11.2009 2.75999C11.3481 2.13088 11.3366 2.12863 7.79637 2.12863C5.19929 2.12863 4.2151 2.22292 4.1364 2.47939ZM18.7352 2.75999C18.6523 3.10738 18.3505 4.68549 18.0647 6.26753L17.5453 9.14372H21.112H24.6789L25.2913 5.84663C25.628 4.03309 25.9031 2.45469 25.9026 2.33909C25.902 2.22348 24.3234 2.12863 22.3941 2.12863C18.9887 2.12863 18.8819 2.14715 18.7352 2.75999ZM31.6048 2.53523C29.1708 3.29482 27.353 5.42909 26.8721 8.09146L26.6822 9.14372H37.5283H48.3741L48.5211 8.51236C49.0082 6.4199 49.6773 2.39016 49.5573 2.27034C49.4792 2.19233 45.6739 2.13705 41.1011 2.14743C35.0641 2.1609 32.4634 2.26725 31.6048 2.53523ZM55.8323 2.38931C54.6213 2.68114 53.7161 3.19465 52.6468 4.19668C51.4894 5.28093 50.9653 6.25406 50.6601 7.88493L50.4246 9.14372H59.25C66.2962 9.14372 68.2708 9.06234 69.0442 8.73965C70.9907 7.92758 74.5214 3.9924 74.5214 2.63484C74.5214 2.15697 74.022 2.13032 65.5984 2.15725C60.6906 2.17325 56.296 2.27763 55.8323 2.38931ZM2.46985 11.599C2.39059 11.8689 1.98421 14.1185 1.56659 16.5974C0.688061 21.8113 0.762255 22.8226 2.12276 24.181C3.52205 25.5781 4.68499 25.7568 11.6837 25.6508C17.0777 25.5691 18.0211 25.4886 18.8758 25.0354C20.13 24.3707 21.617 22.9763 22.1445 21.9704C22.5208 21.2532 24.2155 12.7744 24.2155 11.6097C24.2155 11.1548 23.8906 11.1079 20.7323 11.1079H17.2491L16.6362 14.5453C16.2992 16.4358 15.9735 18.1407 15.9128 18.3335C15.7492 18.8509 8.47733 18.8352 8.47733 18.3175C8.47733 18.1157 8.73026 16.5761 9.0394 14.8961C9.34855 13.2161 9.60148 11.6764 9.60148 11.4747C9.60148 11.1924 8.79687 11.1079 6.10733 11.1079C3.02181 11.1079 2.59659 11.1655 2.46985 11.599ZM25.5333 15.5274C24.7348 20.2744 24.6958 20.5923 24.7452 21.9805C24.788 23.1865 26.4413 25.0276 27.8263 25.4117C29.4375 25.8584 40.1622 25.7787 41.7279 25.3082C43.4554 24.789 45.1177 23.4348 45.8195 21.9752C46.1334 21.3227 46.7149 18.9578 47.112 16.72C47.5091 14.4822 47.9045 12.3042 47.9911 11.8796L48.1485 11.1079H42.9726H37.7967L37.3293 13.7198C37.0724 15.1562 36.8622 16.4189 36.8622 16.5258C36.8622 16.6325 37.5724 16.72 38.4408 16.72C39.9404 16.72 40.0107 16.7514 39.8497 17.3514C39.7566 17.6985 39.6785 18.1407 39.6766 18.3335C39.6735 18.5956 38.7618 18.6842 36.066 18.6842C34.0822 18.6842 32.3917 18.6169 32.3091 18.5344C32.1815 18.4067 32.9046 13.7131 33.356 11.7393C33.5002 11.1099 33.4898 11.1079 29.8885 11.1079H26.2766L25.5333 15.5274ZM49.9701 11.599C49.4044 13.6019 48.3317 21.2596 48.495 22.1295C48.7479 23.4753 50.2048 24.9933 51.6201 25.3856C52.8862 25.7364 68.3459 25.832 68.3267 25.4889C68.3203 25.3733 67.4583 23.8263 66.4115 22.0515L64.508 18.8245L60.2404 18.7471C56.9989 18.6882 55.9729 18.5832 55.9729 18.3102C55.9729 18.1124 56.2258 16.5761 56.5349 14.8961C56.8441 13.2161 57.097 11.6764 57.097 11.4747C57.097 11.1924 56.2924 11.1079 53.6029 11.1079C50.5156 11.1079 50.0927 11.1652 49.9701 11.599ZM36.7282 28.5755C36.5733 29.041 35.457 36.2537 35.457 36.7871C35.457 37.0941 35.7903 37.2041 36.7217 37.2041C38.0946 37.2041 38.4703 36.7357 37.2135 36.5912C36.7256 36.5354 36.4578 36.3474 36.4876 36.0816C36.8052 33.2271 36.8875 32.995 37.582 32.995C37.9591 32.995 38.2674 32.8687 38.2674 32.7144C38.2674 32.5601 38.0145 32.4338 37.7053 32.4338C37.0927 32.4338 37.0168 31.9731 37.3237 30.1188C37.4847 29.1454 37.5688 29.0666 38.4448 29.0666C39.099 29.0666 39.3916 28.9366 39.3916 28.6457C39.3916 28.1063 36.9058 28.0407 36.7282 28.5755ZM42.0915 28.6687C41.9976 28.9128 41.9209 30.9418 41.9209 33.1777C41.9209 37.2055 41.9265 37.2422 42.5386 37.1535C43.0743 37.0758 43.3354 36.4837 44.4972 32.7144C45.2344 30.3223 45.8417 28.3244 45.8465 28.2744C45.8515 28.2245 45.6343 28.2262 45.3636 28.2778C45 28.3477 44.5964 29.2849 43.814 31.8762L42.7562 35.3801L42.9223 31.8024C43.0631 28.7669 43.0257 28.2248 42.6752 28.2248C42.4479 28.2248 42.1854 28.4245 42.0915 28.6687ZM48.2508 28.5755C48.0959 29.041 46.9796 36.2537 46.9796 36.7871C46.9796 37.0941 47.3129 37.2041 48.2443 37.2041C49.6172 37.2041 49.9929 36.7357 48.7361 36.5912C48.2482 36.5354 47.9804 36.3474 48.0102 36.0816C48.3278 33.2271 48.4101 32.995 49.1046 32.995C49.4817 32.995 49.79 32.8687 49.79 32.7144C49.79 32.5601 49.5371 32.4338 49.2279 32.4338C48.6153 32.4338 48.5394 31.9731 48.8463 30.1188C49.0073 29.1454 49.0913 29.0666 49.9673 29.0666C50.6216 29.0666 50.9142 28.9366 50.9142 28.6457C50.9142 28.1063 48.4284 28.0407 48.2508 28.5755ZM53.1878 32.5842C52.8244 34.982 52.6088 37.0253 52.7089 37.1252C53.0953 37.511 53.3803 36.6858 53.7293 34.1707C53.9289 32.7338 54.1871 31.7118 54.3035 31.8998C54.4198 32.0878 54.6036 33.3581 54.7116 34.7227C54.8844 36.9016 54.9732 37.2041 55.4406 37.2041C55.7542 37.2041 55.9793 37.0023 55.9886 36.713C55.997 36.4428 56.2899 34.4227 56.6392 32.2234C57.1223 29.1802 57.1903 28.2248 56.9233 28.2248C56.4886 28.2248 56.3891 28.5769 55.9335 31.7323C55.6435 33.7397 55.5305 34.0852 55.3824 33.4159C55.2801 32.9529 55.1795 31.8796 55.1592 31.0308C55.1101 28.9846 54.8816 28.2248 54.3158 28.2248C53.9289 28.2248 53.7355 28.9717 53.1878 32.5842ZM59.6264 28.6457C59.6264 28.8825 59.8776 29.0666 60.2011 29.0666C60.6957 29.0666 60.7533 29.1937 60.6128 29.9785C60.5229 30.48 60.2233 32.3112 59.947 34.0473C59.4825 36.9658 59.4794 37.2041 59.9082 37.2041C60.2742 37.2041 60.445 36.715 60.7165 34.8891C61.5189 29.4945 61.6245 29.0666 62.1546 29.0666C62.4311 29.0666 62.7304 28.8772 62.8195 28.6457C62.9522 28.3005 62.6793 28.2248 61.3039 28.2248C60.0001 28.2248 59.6264 28.3185 59.6264 28.6457ZM66.2308 28.4515C65.4082 28.61 65.2797 28.805 64.9863 30.3408C64.7365 31.6492 64.7699 31.794 65.5462 32.768C66.7071 34.2252 66.6596 36.3622 65.4661 36.3622C64.9571 36.3622 64.9208 36.2393 65.092 35.0995C65.2423 34.0983 65.1974 33.8368 64.8756 33.8368C64.4175 33.8368 64.1325 34.6629 64.1269 36.0062C64.1238 36.7335 64.2579 36.9465 64.8053 37.0837C66.2993 37.458 67.0036 36.8185 67.3417 34.7805C67.5131 33.7465 67.4398 33.5127 66.6717 32.6389C65.7772 31.6217 65.5804 30.579 66.1001 29.6092C66.2603 29.3107 66.593 29.0666 66.8398 29.0666C67.202 29.0666 67.2591 29.2857 67.1354 30.2047C67.007 31.1613 67.0573 31.3291 67.4499 31.2544C67.7894 31.1902 67.94 30.8125 68.0013 29.871C68.0766 28.7096 68.0187 28.564 67.4392 28.4596C67.0837 28.3956 66.5399 28.392 66.2308 28.4515Z" fill="#454F5C"/>
</svg>
